<?xml version="1.0" encoding="utf-8"?>
<!-- Generator: Adobe Illustrator 25.0.0, SVG Export Plug-In . SVG Version: 6.00 Build 0)  -->
<svg version="1.1" id="Capa_1" xmlns="http://www.w3.org/2000/svg" xmlns:xlink="http://www.w3.org/1999/xlink" x="0px" y="0px"
	 viewBox="0 0 48 48" style="enable-background:new 0 0 48 48;" xml:space="preserve">
<style type="text/css">
	.st0{fill-rule:evenodd;clip-rule:evenodd;fill:#767EED;}
	.st1{fill:#FFFFFF;}
</style>
<path class="st0" d="M24,48c13.3,0,24-10.7,24-24S37.3,0,24,0S0,10.7,0,24S10.7,48,24,48z"/>
<path class="st1" d="M15,24c0-0.6,0.4-1,1-1h7v-7c0-0.6,0.4-1,1-1s1,0.4,1,1v7h7c0.6,0,1,0.4,1,1s-0.4,1-1,1h-7v7c0,0.6-0.4,1-1,1
	s-1-0.4-1-1v-7h-7C15.4,25,15,24.6,15,24z"/>
</svg>
