<?xml version="1.0" encoding="utf-8"?>
<!-- Generator: Adobe Illustrator 25.0.0, SVG Export Plug-In . SVG Version: 6.00 Build 0)  -->
<svg version="1.1" id="Capa_1" xmlns="http://www.w3.org/2000/svg" xmlns:xlink="http://www.w3.org/1999/xlink" x="0px" y="0px"
	 viewBox="0 0 140 57.6" style="enable-background:new 0 0 140 57.6;" xml:space="preserve">
<style type="text/css">
	.st0{fill:#ECA36B;}
	.st1{fill:#FFFFFF;}
</style>
<path class="st0" d="M15,0.8h110c8.3,0,15,6.7,15,15v26c0,8.3-6.7,15-15,15H15c-8.3,0-15-6.7-15-15v-26C0,7.5,6.7,0.8,15,0.8z"/>
<path class="st1" d="M44,33.8V19.3h3.9c1.4,0,2.6,0.2,3.6,0.7c1,0.4,1.8,1,2.4,1.7c0.6,0.7,1.1,1.5,1.3,2.4c0.3,0.9,0.4,1.7,0.4,2.6
	c0,1.1-0.2,2.1-0.6,2.9c-0.4,0.9-0.9,1.6-1.6,2.2c-0.7,0.6-1.4,1.1-2.3,1.4c-0.9,0.3-1.8,0.5-2.7,0.5H44z M45.9,31.9h2.3
	c0.8,0,1.5-0.1,2.2-0.4c0.7-0.2,1.3-0.6,1.8-1c0.5-0.5,0.9-1,1.2-1.7c0.3-0.7,0.4-1.4,0.4-2.3c0-0.9-0.1-1.7-0.4-2.3
	c-0.3-0.7-0.7-1.2-1.2-1.7c-0.5-0.5-1.1-0.8-1.7-1c-0.6-0.2-1.3-0.4-2-0.4h-2.5V31.9z M57.8,29.6c0-0.8,0.2-1.6,0.6-2.2
	c0.4-0.7,0.9-1.2,1.6-1.6c0.7-0.4,1.5-0.6,2.4-0.6c0.9,0,1.7,0.2,2.4,0.6c0.7,0.4,1.2,0.9,1.6,1.6c0.4,0.7,0.6,1.4,0.6,2.2
	s-0.2,1.6-0.6,2.3c-0.4,0.7-0.9,1.2-1.6,1.6c-0.7,0.4-1.5,0.6-2.4,0.6c-0.9,0-1.7-0.2-2.4-0.5c-0.7-0.4-1.2-0.9-1.6-1.5
	C58,31.3,57.8,30.5,57.8,29.6z M59.7,29.6c0,0.5,0.1,1,0.4,1.5c0.2,0.4,0.6,0.8,1,1c0.4,0.3,0.9,0.4,1.4,0.4c0.5,0,1-0.1,1.4-0.4
	c0.4-0.3,0.7-0.6,1-1c0.2-0.4,0.3-0.9,0.3-1.5c0-0.5-0.1-1-0.3-1.4c-0.2-0.4-0.5-0.8-1-1c-0.4-0.3-0.9-0.4-1.4-0.4
	c-0.5,0-1,0.1-1.4,0.4c-0.4,0.3-0.7,0.6-1,1.1C59.8,28.6,59.7,29.1,59.7,29.6z M71.1,25.5l0.2,2l-0.1-0.3c0.3-0.6,0.7-1.1,1.3-1.5
	c0.6-0.4,1.3-0.6,2.1-0.6c0.8,0,1.4,0.2,1.9,0.7c0.5,0.5,0.8,1,0.8,1.8v6.1h-1.9v-5.5c0-0.5-0.1-0.8-0.4-1.1
	c-0.2-0.3-0.6-0.4-1.1-0.4c-0.5,0-0.9,0.1-1.3,0.4c-0.4,0.3-0.7,0.6-0.9,1.1c-0.2,0.5-0.3,1-0.3,1.6v3.9h-1.9v-8.3H71.1z M83.9,34
	c-0.8,0-1.5-0.2-2.1-0.5c-0.6-0.3-1.1-0.8-1.5-1.5c-0.4-0.7-0.5-1.4-0.5-2.4c0-0.9,0.2-1.7,0.6-2.4c0.4-0.7,0.9-1.2,1.5-1.6
	c0.7-0.4,1.4-0.5,2.1-0.5c0.8,0,1.4,0.2,2,0.5c0.5,0.3,0.9,0.8,1.2,1.2l-0.1,0.3l0.2-1.8H89v8.3h-1.9v-2.2l0.2,0.5
	c-0.1,0.1-0.2,0.3-0.4,0.5c-0.2,0.2-0.4,0.4-0.7,0.6c-0.3,0.2-0.6,0.4-1,0.5C84.9,33.9,84.4,34,83.9,34z M84.4,32.5
	c0.5,0,0.9-0.1,1.3-0.3c0.4-0.2,0.7-0.4,0.9-0.7c0.3-0.3,0.4-0.7,0.5-1.1v-1.6c-0.1-0.4-0.3-0.7-0.6-1c-0.3-0.3-0.6-0.5-1-0.7
	c-0.4-0.2-0.8-0.3-1.2-0.3c-0.5,0-0.9,0.1-1.4,0.4c-0.4,0.2-0.7,0.6-1,1c-0.2,0.4-0.4,0.9-0.4,1.5c0,0.5,0.1,1,0.4,1.5
	c0.3,0.4,0.6,0.8,1,1C83.5,32.3,84,32.5,84.4,32.5z M93.9,25.5l0.2,2.4L94,27.6c0.2-0.5,0.5-0.9,0.9-1.3c0.4-0.4,0.8-0.6,1.3-0.8
	c0.5-0.2,0.8-0.3,1.2-0.3L97.2,27c-0.6,0-1.2,0.1-1.7,0.4c-0.5,0.3-0.8,0.7-1.1,1.1c-0.3,0.5-0.4,1-0.4,1.5v3.8h-1.8v-8.3H93.9z"/>
</svg>
