<?xml version="1.0" encoding="utf-8"?>
<!-- Generator: Adobe Illustrator 25.0.0, SVG Export Plug-In . SVG Version: 6.00 Build 0)  -->
<svg version="1.1" id="Capa_1" xmlns="http://www.w3.org/2000/svg" xmlns:xlink="http://www.w3.org/1999/xlink" x="0px" y="0px"
	 viewBox="0 0 328.3 57.6" style="enable-background:new 0 0 328.3 57.6;" xml:space="preserve">
<style type="text/css">
	.st0{fill:#FFFFFF;}
	.st1{fill:#767EED;}
</style>
<path class="st0" d="M0,15.2c0-8.3,6.7-15,15-15h297c8.3,0,15,6.7,15,15v27c0,8.3-6.7,15-15,15H15c-8.3,0-15-6.7-15-15V15.2z"/>
<path class="st1" d="M131,35.2V17.1h4.9c1.8,0,3.3,0.3,4.6,0.8c1.3,0.5,2.3,1.3,3,2.2c0.8,0.9,1.3,1.9,1.7,3
	c0.4,1.1,0.6,2.2,0.6,3.2c0,1.4-0.2,2.6-0.7,3.7c-0.5,1.1-1.1,2-1.9,2.8c-0.8,0.8-1.8,1.4-2.9,1.8c-1.1,0.4-2.2,0.6-3.4,0.6H131z
	 M133.4,32.8h2.9c1,0,1.9-0.1,2.8-0.5c0.9-0.3,1.6-0.7,2.2-1.3c0.6-0.6,1.1-1.3,1.5-2.1c0.4-0.8,0.5-1.8,0.5-2.8
	c0-1.1-0.2-2.1-0.5-2.9c-0.4-0.9-0.9-1.6-1.5-2.1c-0.6-0.6-1.4-1-2.2-1.3c-0.8-0.3-1.6-0.5-2.5-0.5h-3.1V32.8z M148.3,29.9
	c0-1,0.2-2,0.7-2.8c0.5-0.8,1.2-1.5,2.1-2c0.9-0.5,1.9-0.7,2.9-0.7c1.1,0,2.1,0.2,3,0.7c0.8,0.5,1.5,1.1,2,2
	c0.5,0.8,0.7,1.8,0.7,2.8s-0.2,2-0.7,2.8c-0.5,0.8-1.1,1.5-2,2c-0.8,0.5-1.8,0.7-3,0.7c-1.1,0-2.1-0.2-2.9-0.7
	c-0.9-0.5-1.5-1.1-2-1.9C148.6,32,148.3,31,148.3,29.9z M150.7,29.9c0,0.7,0.1,1.3,0.4,1.8c0.3,0.5,0.7,1,1.2,1.3
	c0.5,0.3,1.1,0.5,1.7,0.5c0.7,0,1.2-0.2,1.7-0.5c0.5-0.3,0.9-0.7,1.2-1.3c0.3-0.6,0.4-1.2,0.4-1.8s-0.1-1.3-0.4-1.8
	c-0.3-0.6-0.7-1-1.2-1.3c-0.5-0.3-1.1-0.5-1.7-0.5c-0.6,0-1.2,0.2-1.7,0.5c-0.5,0.3-0.9,0.8-1.2,1.3
	C150.8,28.7,150.7,29.3,150.7,29.9z M164.9,24.8l0.2,2.5l-0.1-0.4c0.3-0.8,0.9-1.4,1.6-1.8c0.8-0.5,1.6-0.7,2.6-0.7s1.8,0.3,2.4,0.9
	c0.6,0.6,1,1.3,1,2.2v7.6h-2.3v-6.8c0-0.6-0.2-1-0.5-1.4c-0.3-0.4-0.8-0.5-1.4-0.5c-0.6,0-1.1,0.2-1.6,0.5s-0.9,0.8-1.2,1.4
	c-0.3,0.6-0.4,1.3-0.4,2v4.9h-2.3V24.8H164.9z M181,35.4c-1,0-1.9-0.2-2.6-0.6c-0.8-0.4-1.4-1-1.9-1.8c-0.5-0.8-0.7-1.8-0.7-3
	c0-1.2,0.2-2.1,0.7-3c0.5-0.9,1.1-1.5,1.9-2c0.8-0.4,1.7-0.7,2.7-0.7c1,0,1.8,0.2,2.4,0.7c0.7,0.4,1.2,1,1.5,1.6l-0.2,0.4l0.2-2.2
	h2.1v10.4H185v-2.7l0.2,0.6c-0.1,0.2-0.2,0.4-0.4,0.6c-0.2,0.2-0.5,0.5-0.9,0.8c-0.4,0.3-0.8,0.5-1.3,0.7
	C182.1,35.3,181.6,35.4,181,35.4z M181.6,33.5c0.6,0,1.1-0.1,1.6-0.3c0.5-0.2,0.9-0.5,1.2-0.9c0.3-0.4,0.5-0.9,0.6-1.4v-2
	c-0.1-0.5-0.4-0.9-0.7-1.3c-0.3-0.4-0.7-0.7-1.2-0.9c-0.5-0.2-1-0.3-1.6-0.3c-0.6,0-1.2,0.1-1.7,0.5c-0.5,0.3-0.9,0.7-1.2,1.2
	c-0.3,0.5-0.5,1.2-0.5,1.9c0,0.7,0.2,1.3,0.5,1.8c0.3,0.5,0.7,1,1.3,1.3C180.4,33.3,181,33.5,181.6,33.5z M193.4,24.8l0.2,3
	l-0.1-0.4c0.3-0.6,0.6-1.2,1.1-1.6c0.5-0.4,1.1-0.8,1.6-1c0.6-0.2,1.1-0.4,1.5-0.4l-0.1,2.3c-0.8,0-1.5,0.1-2.1,0.5
	c-0.6,0.4-1,0.8-1.4,1.4c-0.3,0.6-0.5,1.2-0.5,1.9v4.7h-2.3V24.8H193.4z"/>
</svg>
