<?xml version="1.0" encoding="utf-8"?>
<!-- Generator: Adobe Illustrator 25.0.0, SVG Export Plug-In . SVG Version: 6.00 Build 0)  -->
<svg version="1.1" id="Capa_1" xmlns="http://www.w3.org/2000/svg" xmlns:xlink="http://www.w3.org/1999/xlink" x="0px" y="0px"
	 viewBox="0 0 23 28.4" style="enable-background:new 0 0 23 28.4;" xml:space="preserve">
<style type="text/css">
	.st0{fill:none;stroke:#767EED;stroke-width:2;stroke-linecap:round;stroke-linejoin:round;}
</style>
<path class="st0" d="M7.5,17.7h8"/>
<path class="st0" d="M7.5,13.7h8"/>
<path class="st0" d="M15.5,3.7h5c0.3,0,0.5,0.1,0.7,0.3c0.2,0.2,0.3,0.4,0.3,0.7v21c0,0.3-0.1,0.5-0.3,0.7s-0.4,0.3-0.7,0.3h-18
	c-0.3,0-0.5-0.1-0.7-0.3c-0.2-0.2-0.3-0.4-0.3-0.7v-21c0-0.3,0.1-0.5,0.3-0.7C2,3.9,2.2,3.7,2.5,3.7h5"/>
<path class="st0" d="M6.5,7.7v-1C6.5,5.4,7,4.1,8,3.2c0.9-0.9,2.2-1.5,3.5-1.5s2.6,0.5,3.5,1.5c0.9,0.9,1.5,2.2,1.5,3.5v1H6.5z"/>
</svg>
