<?xml version="1.0" encoding="utf-8"?>
<!-- Generator: Adobe Illustrator 25.0.0, SVG Export Plug-In . SVG Version: 6.00 Build 0)  -->
<svg version="1.1" id="Capa_1" xmlns="http://www.w3.org/2000/svg" xmlns:xlink="http://www.w3.org/1999/xlink" x="0px" y="0px"
	 viewBox="0 0 25.7 25.5" style="enable-background:new 0 0 25.7 25.5;" xml:space="preserve">
<style type="text/css">
	.st0{fill:none;stroke:#767EED;stroke-width:2;stroke-linecap:round;stroke-linejoin:round;}
</style>
<path class="st0" d="M8.6,24h-6c-0.3,0-0.5-0.1-0.7-0.3c-0.2-0.2-0.3-0.4-0.3-0.7v-5.6c0-0.1,0-0.3,0.1-0.4c0.1-0.1,0.1-0.2,0.2-0.3
	l15-15c0.2-0.2,0.4-0.3,0.7-0.3s0.5,0.1,0.7,0.3l5.6,5.6c0.2,0.2,0.3,0.4,0.3,0.7c0,0.3-0.1,0.5-0.3,0.7L8.6,24z"/>
<path class="st0" d="M13.6,5l7,7"/>
</svg>
