<?xml version="1.0" encoding="utf-8"?>
<!-- Generator: Adobe Illustrator 25.0.0, SVG Export Plug-In . SVG Version: 6.00 Build 0)  -->
<svg version="1.1" id="Capa_1" xmlns="http://www.w3.org/2000/svg" xmlns:xlink="http://www.w3.org/1999/xlink" x="0px" y="0px"
	 viewBox="0 0 30 25.5" style="enable-background:new 0 0 30 25.5;" xml:space="preserve">
<style type="text/css">
	.st0{fill:none;stroke:#767EED;stroke-width:2;stroke-linecap:round;stroke-linejoin:round;}
</style>
<path class="st0" d="M2.9,1.7h24.5c0.2,0,0.4,0.1,0.6,0.2c0.2,0.1,0.3,0.3,0.4,0.4c0.1,0.2,0.1,0.4,0.1,0.6c0,0.2-0.1,0.4-0.3,0.5
	l-9.4,9c-0.2,0.2-0.3,0.4-0.3,0.7v7.1c0,0.2,0,0.3-0.1,0.5C18.3,20.8,18.2,21,18,21l-4.6,2.7c-0.2,0.1-0.4,0.2-0.6,0.2
	c-0.2,0-0.4,0-0.6-0.1c-0.2-0.1-0.3-0.2-0.4-0.4c-0.1-0.2-0.2-0.3-0.2-0.5v-9.7c0-0.2-0.1-0.5-0.3-0.7L2,3.4
	C1.9,3.3,1.8,3.1,1.7,2.9c0-0.2,0-0.4,0.1-0.6C1.9,2.2,2.1,2,2.2,1.9S2.6,1.7,2.9,1.7L2.9,1.7z"/>
</svg>
