<svg id="Capa_1" data-name="Capa 1" xmlns="http://www.w3.org/2000/svg" viewBox="0 0 24 27"><defs><style>.cls-1{fill:none;stroke:#fff;stroke-linecap:round;stroke-linejoin:round;stroke-width:2px;}</style></defs><path class="cls-1" d="M7.52,26.56a3,3,0,0,0,2.13-.88,3,3,0,0,0,.87-2.12v-6" transform="translate(-1.02 -0.56)"/><path class="cls-1" d="M18.52,26.56a3,3,0,0,1-3-3v-6" transform="translate(-1.02 -0.56)"/><path class="cls-1" d="M16,17.56h2a3,3,0,0,1,3,3v1a3,3,0,0,0,3,3" transform="translate(-1.02 -0.56)"/><path class="cls-1" d="M10,17.56H8a3,3,0,0,0-3,3v1a3,3,0,0,1-.87,2.12A3,3,0,0,1,2,24.56" transform="translate(-1.02 -0.56)"/><path class="cls-1" d="M5.09,7.14A6.53,6.53,0,0,1,4.67,4.3a6.6,6.6,0,0,1,.85-2.74,6.49,6.49,0,0,1,5.48,3h4.05a6.36,6.36,0,0,1,2.35-2.2,6.44,6.44,0,0,1,3.12-.8A6.42,6.42,0,0,1,21,7.14h0A6,6,0,0,1,22,10.56v1a6,6,0,0,1-6,6H10a6,6,0,0,1-6-6v-1A6,6,0,0,1,5.09,7.14Z" transform="translate(-1.02 -0.56)"/></svg>