<?xml version="1.0" encoding="utf-8"?>
<!-- Generator: Adobe Illustrator 25.0.0, SVG Export Plug-In . SVG Version: 6.00 Build 0)  -->
<svg version="1.1" id="Capa_1" xmlns="http://www.w3.org/2000/svg" xmlns:xlink="http://www.w3.org/1999/xlink" x="0px" y="0px"
	 viewBox="0 0 35.9 35.8" style="enable-background:new 0 0 35.9 35.8;" xml:space="preserve">
<style type="text/css">
	.st0{fill:#767EED;}
	.st1{fill:#FFFFFF;}
</style>
<circle class="st0" cx="17.8" cy="17.7" r="17"/>
<path class="st1" d="M17.8,10.7l0.7-0.7c-0.4-0.4-1-0.4-1.4,0L17.8,10.7z M22.1,16.4c0.4,0.4,1,0.4,1.4,0c0.4-0.4,0.4-1,0-1.4
	L22.1,16.4z M12.1,15c-0.4,0.4-0.4,1,0,1.4c0.4,0.4,1,0.4,1.4,0L12.1,15z M16.8,24.7c0,0.6,0.4,1,1,1s1-0.4,1-1H16.8z M17.1,11.4
	l5,5l1.4-1.4l-5-5L17.1,11.4z M17.1,10l-5,5l1.4,1.4l5-5L17.1,10z M16.8,10.7v7h2v-7H16.8z M16.8,17.7v7h2v-7H16.8z"/>
</svg>
