<?xml version="1.0" encoding="utf-8"?>
<!-- Generator: Adobe Illustrator 25.0.0, SVG Export Plug-In . SVG Version: 6.00 Build 0)  -->
<svg version="1.1" id="Capa_1" xmlns="http://www.w3.org/2000/svg" xmlns:xlink="http://www.w3.org/1999/xlink" x="0px" y="0px"
	 viewBox="0 0 25.6 25.6" style="enable-background:new 0 0 25.6 25.6;" xml:space="preserve">
<style type="text/css">
	.st0{fill:none;stroke:#FFFFFF;stroke-width:2;stroke-miterlimit:10;}
	.st1{fill:none;stroke:#FFFFFF;stroke-width:2;stroke-linecap:round;stroke-linejoin:round;}
	.st2{fill:#FFFFFF;stroke:#FFFFFF;stroke-miterlimit:10;}
</style>
<path class="st0" d="M12.8,17.8c2.8,0,5-2.2,5-5s-2.2-5-5-5s-5,2.2-5,5S10.1,17.8,12.8,17.8z"/>
<path class="st1" d="M18.3,1.3h-11c-3.3,0-6,2.7-6,6v11c0,3.3,2.7,6,6,6h11c3.3,0,6-2.7,6-6v-11C24.3,4,21.6,1.3,18.3,1.3z"/>
<path class="st2" d="M19.3,7.8c0.8,0,1.5-0.7,1.5-1.5c0-0.8-0.7-1.5-1.5-1.5s-1.5,0.7-1.5,1.5C17.8,7.2,18.5,7.8,19.3,7.8z"/>
</svg>
