<svg id="Capa_1" data-name="Capa 1" xmlns="http://www.w3.org/2000/svg" viewBox="0 0 25 25"><defs><style>.cls-1,.cls-2{fill:none;stroke:#fff;stroke-width:2px;}.cls-1{stroke-miterlimit:10;}.cls-2{stroke-linecap:round;stroke-linejoin:round;}.cls-3{fill:#fff;}</style></defs><path class="cls-1" d="M13,18.06a5,5,0,1,0-5-5A5,5,0,0,0,13,18.06Z" transform="translate(-0.52 -0.56)"/><path class="cls-2" d="M18.52,1.56h-11a6,6,0,0,0-6,6v11a6,6,0,0,0,6,6h11a6,6,0,0,0,6-6v-11A6,6,0,0,0,18.52,1.56Z" transform="translate(-0.52 -0.56)"/><path class="cls-3" d="M19.52,8.06A1.5,1.5,0,1,0,18,6.56,1.5,1.5,0,0,0,19.52,8.06Z" transform="translate(-0.52 -0.56)"/></svg>