<svg id="Capa_1" data-name="Capa 1" xmlns="http://www.w3.org/2000/svg" viewBox="0 0 68.21 69.88"><defs><style>.cls-1{fill:#fff;}</style></defs><path class="cls-1" d="M35,0a.4.4,0,0,1-.23.1c-.08,0-.15,0-.15.1a.1.1,0,0,1-.11.09c-.05,0-.1,0-.1.06s-.1.08-.22.11S34,.51,34,.57a.1.1,0,0,1-.11.09c-.06,0-.11,0-.11.06s-.09.07-.22.1-.21.08-.21.14-.08.09-.22.09-.21,0-.21.1a.1.1,0,0,1-.11.09c-.06,0-.11,0-.11.06s-.08.08-.19.11a.8.8,0,0,0-.35.19,1,1,0,0,1-.32.2.86.86,0,0,0-.27.14.33.33,0,0,1-.2.09.17.17,0,0,0-.13.1.2.2,0,0,1-.15.1c-.06,0-.11,0-.11,0s-.08.08-.18.1-.18.07-.18.11-.05.06-.11.06a.17.17,0,0,0-.15.09c0,.06-.12.11-.22.13s-.17.08-.17.11-.05.06-.11.06a.16.16,0,0,0-.15.1.36.36,0,0,1-.25.13c-.11,0-.21.07-.21.1s-.08.07-.18.09-.18.07-.18.11-.05.06-.1.06a.28.28,0,0,0-.17.1.3.3,0,0,1-.21.12c-.09,0-.16,0-.16.09s0,.08-.11.08A.17.17,0,0,0,28,4a.25.25,0,0,1-.22.1c-.1,0-.17,0-.17.1s-.06.1-.14.1a.44.44,0,0,0-.25.1.31.31,0,0,1-.18.09.1.1,0,0,0-.08.1c0,.07-.07.1-.21.1s-.22,0-.22.09-.06.11-.15.12-.13.07-.1.11,0,.07-.17.07-.22,0-.22.1-.07.1-.15.1-.14,0-.14.1-.07.09-.18.09-.18,0-.18.1-.07.1-.22.1-.21,0-.21.1a.11.11,0,0,1-.11.1.1.1,0,0,0-.11.09c0,.07-.07.1-.21.1s-.22,0-.22.1a.11.11,0,0,1-.11.1.1.1,0,0,0-.1.1c0,.06-.08.09-.22.09s-.21,0-.21.1-.18.14-.38.11c0,0-.06,0-.06.09a.11.11,0,0,1-.1.1.1.1,0,0,0-.11.09c0,.07-.07.1-.22.1s-.21,0-.21.1a.11.11,0,0,1-.11.1.1.1,0,0,0-.11.1q0,.09-.21.09c-.15,0-.22,0-.22.1a.09.09,0,0,1-.08.1.41.41,0,0,0-.18.1.46.46,0,0,1-.25.1c-.07,0-.14,0-.14.09S21.06,8,21,8a.25.25,0,0,0-.21.1.2.2,0,0,1-.15.1.1.1,0,0,0-.11.1c0,.06-.07.1-.18.1a.26.26,0,0,0-.21.09.14.14,0,0,1-.12.1.41.41,0,0,0-.18.1.49.49,0,0,1-.25.1c-.08,0-.14,0-.14.1s-.07.09-.18.09-.18,0-.18.1-.06.1-.14.1-.15,0-.15.06-.08.08-.17.11a.36.36,0,0,0-.22.13.16.16,0,0,1-.15.09c-.05,0-.1,0-.1.07s-.08.08-.18.1a.31.31,0,0,0-.21.13.17.17,0,0,1-.15.09c-.06,0-.11,0-.11.07s0,.06-.1.06a.3.3,0,0,0-.2.1.91.91,0,0,1-.28.13.82.82,0,0,0-.31.2,1.12,1.12,0,0,1-.32.2.83.83,0,0,0-.26.1c-.36.27-.43.32-.52.32s-.09,0-.09.06-.1.08-.22.1-.22.08-.22.11,0,.06-.1.06a.1.1,0,0,0-.11.09c0,.05-.1.11-.22.14s-.21.07-.21.1-.05.06-.11.06a.1.1,0,0,0-.11.09s-.1.11-.21.14-.22.07-.22.1-.05.06-.11.06a.11.11,0,0,0-.1.1c0,.07-.08.1-.22.1s-.22,0-.22.09-.09.11-.21.14-.22.07-.22.1-.05.06-.1.06a.1.1,0,0,0-.11.09s-.1.11-.22.14-.21.07-.21.1,0,.06-.11.06a.11.11,0,0,0-.11.1c0,.06-.06.1-.18.1s-.2,0-.22.09a.33.33,0,0,1-.22.13c-.09,0-.17.07-.17.11s-.06.06-.14.06-.15.05-.15.1-.06.1-.18.1-.18,0-.18.09-.06.1-.14.1-.14.05-.14.1-.07.1-.18.1a.27.27,0,0,0-.23.1.19.19,0,0,1-.17.09c-.09,0-.12,0-.1.1s0,.1-.18.1-.22,0-.22.1-.07.1-.18.1-.18,0-.18.1-.06.09-.14.09-.15,0-.15.1-.06.1-.18.1-.18,0-.18.1-.06.1-.14.1-.14,0-.14.09-.07.1-.18.1-.18,0-.18.1S7.19,16,7,16s-.21,0-.21.1a.1.1,0,0,1-.11.09.11.11,0,0,0-.11.1c0,.07-.07.1-.22.1s-.21,0-.21.1a.11.11,0,0,1-.11.1A.1.1,0,0,0,6,16.7a.09.09,0,0,1-.1.1c-.09,0-.22.34-.19.51s0,.08-.08.08-.06,0,0,.08.11.29,0,.33-.06.06,0,.16.08.16,0,.25-.07.12,0,.17a32.18,32.18,0,0,1,0,4.81c-.07.07-.07.12,0,.21s.11.64,0,.68-.07.05,0,.08a.49.49,0,0,1,.13.3c0,.19.09.26.21.29a.36.36,0,0,1,.21.13c.05.14.9.13.9,0a.09.09,0,0,1,.1-.09.39.39,0,0,0,.33-.4c0-.11,0-.19.07-.19A25.34,25.34,0,0,0,7.62,21c0-3,0-3.2.13-3.29A1,1,0,0,1,8,17.57c.06,0,.12-.08.12-.11s.08-.07.18-.07.18,0,.18-.1.06-.1.14-.1.15,0,.15-.09S8.85,17,9,17s.18-.06.18-.11,0-.08.11-.08a.39.39,0,0,0,.25-.1.38.38,0,0,1,.18-.09s.08-.05.11-.1a.26.26,0,0,1,.22-.1c.12,0,.18,0,.18-.1s.07-.1.15-.1.14,0,.14-.09.06-.1.18-.1.18,0,.18-.1.06-.1.14-.1.15,0,.15-.1,0-.09,0-.09c.18,0,.31,0,.31-.1s.07-.1.21-.1.22,0,.22-.1a.11.11,0,0,1,.1-.1.1.1,0,0,0,.11-.09c0-.07.07-.1.22-.1s.21,0,.21-.1a.11.11,0,0,1,.11-.1.15.15,0,0,0,.15-.1.27.27,0,0,1,.22-.1c.11,0,.17,0,.17-.09s.07-.1.22-.1.21,0,.21-.1a.11.11,0,0,1,.11-.1.1.1,0,0,0,.11-.1q0-.09.21-.09c.15,0,.22,0,.22-.1a.11.11,0,0,1,.11-.1.11.11,0,0,0,.1-.1c0-.06.08-.1.22-.1s.21,0,.21-.09.07-.1.18-.1a.26.26,0,0,0,.21-.1.18.18,0,0,1,.15-.1.1.1,0,0,0,.11-.1c0-.05.07-.09.17-.09A.27.27,0,0,0,16,13a.18.18,0,0,1,.15-.1c.06,0,.11,0,.11-.07s.08-.07.17-.1a.36.36,0,0,0,.22-.13.16.16,0,0,1,.15-.09s.1,0,.1-.06.1-.08.22-.11.22-.08.22-.13.07-.09.17-.09a.25.25,0,0,0,.21-.1.2.2,0,0,1,.15-.1c.06,0,.11,0,.11-.07s.08-.07.18-.1a.31.31,0,0,0,.21-.13.17.17,0,0,1,.15-.09c.06,0,.11,0,.11-.07s.08-.08.18-.1.18-.07.18-.09.08-.08.19-.1a.8.8,0,0,0,.34-.2.86.86,0,0,1,.35-.19.45.45,0,0,0,.23-.14.16.16,0,0,1,.15-.09c.05,0,.1,0,.1-.07s.08-.08.18-.1.18-.07.18-.1,0-.06.11-.06a.16.16,0,0,0,.15-.09.33.33,0,0,1,.22-.13c.09,0,.17-.07.17-.1s.1-.08.22-.1.21-.08.21-.11.05-.06.11-.06A.1.1,0,0,0,22,9.52s.1-.11.21-.14.22-.07.22-.1,0-.06.11-.06a.11.11,0,0,0,.1-.1c0-.06.07-.1.22-.1s.21,0,.21-.09.1-.11.22-.14.22-.07.22-.1.05-.06.1-.06a.1.1,0,0,0,.11-.09s.1-.11.22-.14.21-.07.21-.1.05-.06.11-.06a.11.11,0,0,0,.11-.1c0-.06.06-.1.18-.1s.2,0,.22-.1a.18.18,0,0,1,.14-.09.1.1,0,0,0,.1-.1c0-.07.08-.1.22-.1s.22,0,.22-.1.06-.1.17-.1.18,0,.18-.09.07-.1.15-.1.14,0,.14-.1.07-.1.18-.1.2,0,.22-.1a.19.19,0,0,1,.15-.09.1.1,0,0,0,.1-.1c0-.07.07-.1.21-.1s.22,0,.22-.1.06-.1.18-.1.18,0,.18-.09.06-.1.14-.1.15,0,.15-.1.06-.1.18-.1.18,0,.18-.1.06-.09.14-.09.14,0,.14-.1.07-.1.18-.1.18,0,.18-.1.07-.1.15-.1.14,0,.14-.06.08-.08.18-.11.18-.07.18-.13.08-.09.21-.09.22,0,.22-.1.06-.09.14-.09.15,0,.15-.1.06-.1.18-.1.18,0,.18-.1.06-.1.14-.1.14,0,.14-.06.08-.08.18-.11.18-.08.18-.13.08-.09.22-.09.21,0,.21-.1a.11.11,0,0,1,.1-.1.19.19,0,0,0,.15-.09c0-.06.12-.1.22-.1s.18,0,.18-.1a.11.11,0,0,1,.11-.1c.06,0,.11,0,.11-.06s.1-.07.21-.1.22-.09.22-.14A.1.1,0,0,1,33,3.14s.1,0,.1-.06.1-.08.22-.1.21-.09.21-.14.08-.09.22-.09.22,0,.22-.1a.11.11,0,0,1,.1-.1c.06,0,.11,0,.11-.06s.09-.08.19-.09a1.08,1.08,0,0,0,.34-.2.72.72,0,0,1,.33-.2.54.54,0,0,0,.22-.11.47.47,0,0,1,.52,0A.34.34,0,0,0,36,2a.14.14,0,0,1,.11.1.39.39,0,0,0,.25.13c.12,0,.21.07.21.11s0,.06.11.06a.1.1,0,0,1,.11.09c0,.06.06.1.18.1s.2,0,.22.09a.28.28,0,0,0,.22.13c.09,0,.17.08.17.11s.05.06.11.06a.18.18,0,0,1,.15.1.31.31,0,0,0,.21.13c.1,0,.17.07.17.1s.05.07.11.07a.16.16,0,0,1,.15.09.26.26,0,0,0,.22.1c.11,0,.17,0,.17.1s.07.1.14.1a.42.42,0,0,1,.23.08.65.65,0,0,0,.23.13c.06,0,.12.08.12.12s.08.06.18.06.18,0,.18.1a.11.11,0,0,0,.11.1.16.16,0,0,1,.15.1.26.26,0,0,0,.21.09c.11,0,.18,0,.18.1a.12.12,0,0,0,.13.1.46.46,0,0,1,.25.1.41.41,0,0,0,.18.1.08.08,0,0,1,.08.09c0,.07.07.1.22.1s.21,0,.21.1a.11.11,0,0,0,.11.1.1.1,0,0,1,.11.1q0,.09.21.09c.15,0,.22,0,.22.1a.11.11,0,0,0,.11.1.11.11,0,0,1,.11.1c0,.06.07.1.21.1S43,5.92,43,6s.07.1.21.1.22,0,.22.1a.11.11,0,0,0,.11.1.1.1,0,0,1,.1.1c0,.06.08.09.22.09s.21,0,.21.1a.1.1,0,0,0,.08.1.33.33,0,0,1,.18.1.53.53,0,0,0,.25.1c.08,0,.14,0,.14.09s.07.1.17.1a.27.27,0,0,1,.22.1.18.18,0,0,0,.15.1.1.1,0,0,1,.11.1q0,.09.21.09c.15,0,.22,0,.22.1a.1.1,0,0,0,.11.1.11.11,0,0,1,.1.1c0,.06.08.1.22.1s.22,0,.22.09.06.1.17.1a.26.26,0,0,1,.21.1.2.2,0,0,0,.15.1.1.1,0,0,1,.11.1c0,.06.07.1.17.1a.27.27,0,0,1,.22.09.16.16,0,0,0,.15.1c.06,0,.11,0,.11.07s.08.08.17.1a.33.33,0,0,1,.22.13.16.16,0,0,0,.15.09c.06,0,.11,0,.11.06s.07.08.17.1.18.07.18.1.1.08.21.1a.37.37,0,0,1,.25.14.19.19,0,0,0,.16.09c.05,0,.1,0,.1.07s.08.08.18.1a.31.31,0,0,1,.21.13A.17.17,0,0,0,50,10c.06,0,.11,0,.11.07s0,.06.1.06a.3.3,0,0,1,.2.1,1,1,0,0,0,.27.13,1,1,0,0,1,.33.2.85.85,0,0,0,.34.2c.11,0,.2.07.2.1s0,.06.1.06a.1.1,0,0,1,.11.09c0,.05.1.11.22.14s.21.06.21.1.1.07.22.09.21.08.21.11,0,.06.11.06a.1.1,0,0,1,.11.09c0,.05.1.11.22.14s.21.07.21.1,0,.06.11.06a.1.1,0,0,1,.11.09s.1.11.21.14.22.07.22.1,0,.06.11.06a.11.11,0,0,1,.1.1c0,.07.08.1.22.1s.21,0,.21.09.08.11.18.13.18.07.18.1.07.07.15.07.14,0,.14.1.07.1.18.1.2,0,.22.09a.18.18,0,0,0,.15.1.11.11,0,0,1,.1.1c0,.06.06.1.18.1s.2,0,.22.1a.23.23,0,0,0,.18.09.21.21,0,0,1,.18.1.24.24,0,0,0,.18.1c.07,0,.14.05.14.1s.06.1.18.1.17,0,.17.09.07.1.15.1.14.05.14.1.07.1.18.1.18,0,.18.1.07.09.22.09.21,0,.21.1a.1.1,0,0,0,.11.1.11.11,0,0,1,.11.1c0,.06.07.1.21.1s.22,0,.22.1.06.09.14.09.15,0,.15.1.06.1.18.1.18,0,.18.1.06.1.14.1.14,0,.14.06.08.08.18.11.18.07.18.13.08.09.22.09.21,0,.21.1a.1.1,0,0,0,.1.09.2.2,0,0,1,.15.1.26.26,0,0,0,.22.1c.12,0,.18,0,.18.1s.06.1.14.1.15,0,.15.06.08.08.18.11.18.07.18.13.08.09.21.09.22,0,.22.1a.1.1,0,0,0,.11.09.11.11,0,0,1,.1.1c0,.07.08.1.22.1s.21,0,.21.1a.11.11,0,0,0,.11.1c.06,0,.11,0,.11.06s.05.07.11.07.11.06.11.16,0,.16.07.16.07.06.07.14,0,.12,0,.11,0,12.57,0,12.79a1.15,1.15,0,0,1,.07.34c0,.1,0,.15.11.15a.11.11,0,0,1,.11.1c0,.07.07.1.21.1s.22,0,.22.1.06.1.17.1a.29.29,0,0,0,.22-.1c0-.06.13-.1.25-.1s.22,0,.22-.1a.11.11,0,0,1,.11-.1c.07,0,.11-.06.11-.19s0-.2.07-.2.07-2.37.07-7,0-7-.07-7-.07-.09-.07-.19,0-.2-.11-.2a.1.1,0,0,1-.11-.1.1.1,0,0,0-.11-.09.11.11,0,0,1-.11-.1c0-.07-.07-.1-.21-.1s-.22,0-.22-.1a.11.11,0,0,0-.1-.1.19.19,0,0,1-.16-.09c0-.06-.12-.1-.21-.1s-.17,0-.17-.1-.07-.1-.14-.1a.39.39,0,0,1-.25-.1.38.38,0,0,0-.18-.09.1.1,0,0,1-.08-.1c0-.07-.07-.1-.22-.1s-.21,0-.21-.1a.11.11,0,0,0-.11-.1.1.1,0,0,1-.11-.09c0-.07-.07-.1-.21-.1s-.22,0-.22-.1-.06-.1-.18-.1-.18,0-.18-.1-.06-.1-.14-.1-.14,0-.14-.09-.08-.1-.22-.1-.22,0-.22-.1a.11.11,0,0,0-.1-.1.1.1,0,0,1-.11-.1c0-.06-.07-.09-.22-.09s-.21,0-.21-.1a.1.1,0,0,0-.08-.1.41.41,0,0,1-.18-.1.49.49,0,0,0-.25-.1c-.07,0-.14,0-.14-.09s-.06-.1-.17-.1a.29.29,0,0,1-.22-.1.17.17,0,0,0-.15-.1c-.05,0-.11,0-.11-.06s-.07-.08-.17-.11a.31.31,0,0,1-.21-.13.15.15,0,0,0-.12-.09.37.37,0,0,1-.18-.1.52.52,0,0,0-.26-.1c-.07,0-.13,0-.13-.09s-.07-.1-.18-.1a.26.26,0,0,1-.21-.1.18.18,0,0,0-.15-.1c-.06,0-.11,0-.11-.06s-.08-.08-.17-.11a.33.33,0,0,1-.22-.13.16.16,0,0,0-.15-.09c-.06,0-.11,0-.11-.06s-.07-.08-.15-.11a.79.79,0,0,1-.26-.13.39.39,0,0,0-.24-.09c-.07,0-.14,0-.14-.1a.11.11,0,0,0-.1-.1c-.06,0-.11,0-.11-.06s-.1-.08-.22-.1-.21-.07-.21-.11,0-.06-.1-.06a.35.35,0,0,1-.21-.13.42.42,0,0,0-.23-.13c-.06,0-.11,0-.11-.06a.08.08,0,0,0-.09-.07.43.43,0,0,1-.22-.13.39.39,0,0,0-.23-.13c-.06,0-.11,0-.11-.06s-.09-.08-.21-.1-.22-.07-.22-.11-.05-.06-.11-.06a.1.1,0,0,1-.1-.09c0-.05-.1-.11-.22-.13S53,9.7,53,9.67s-.05-.06-.11-.06a.1.1,0,0,1-.11-.1c0-.06-.07-.09-.22-.09s-.21,0-.21-.1-.09-.11-.22-.13S52,9.11,52,9.08,51.9,9,51.84,9a.1.1,0,0,1-.11-.09c0-.06-.06-.1-.18-.1a.26.26,0,0,1-.22-.1.2.2,0,0,0-.14-.1.09.09,0,0,1-.1-.1c0-.06-.07-.09-.18-.09s-.21,0-.23-.1a.31.31,0,0,0-.21-.13c-.1,0-.17-.07-.17-.1S50.23,8,50.15,8,50,8,50,7.94s-.07-.09-.18-.09-.18,0-.18-.1-.07-.1-.14-.1-.15,0-.15-.1-.06-.1-.18-.1-.2,0-.22-.09a.17.17,0,0,0-.14-.1.11.11,0,0,1-.11-.1c0-.06-.06-.1-.18-.1s-.2,0-.22-.1a.26.26,0,0,0-.21-.09c-.11,0-.18,0-.18-.1s-.06-.1-.14-.1-.14,0-.14-.1-.07-.1-.18-.1-.18,0-.18-.09-.07-.1-.15-.1-.14,0-.14-.1-.06-.1-.18-.1-.18,0-.18-.1-.07-.09-.21-.09-.22,0-.22-.1a.1.1,0,0,0-.1-.1.17.17,0,0,1-.14-.1.29.29,0,0,0-.23-.1c-.11,0-.18,0-.18-.09s-.06-.1-.14-.1-.14,0-.14-.1-.07-.1-.18-.1-.18,0-.18-.1-.08-.09-.22-.09-.21,0-.21-.1a.11.11,0,0,0-.11-.1.11.11,0,0,1-.11-.1c0-.06-.07-.1-.22-.1s-.21,0-.21-.09a.1.1,0,0,0-.11-.1c-.06,0-.11,0-.11-.06s-.09-.08-.21-.11-.22-.08-.22-.13a.1.1,0,0,0-.11-.1s-.1,0-.1,0-.1-.08-.22-.11-.21-.08-.21-.14-.08-.09-.22-.09-.22,0-.22-.1a.1.1,0,0,0-.1-.09c-.06,0-.11,0-.11-.06s-.09-.08-.22-.11-.21-.08-.21-.13a.1.1,0,0,0-.11-.1c-.06,0-.11,0-.11,0s-.09-.08-.21-.11-.22-.07-.22-.1-.08-.08-.17-.1a.33.33,0,0,1-.22-.13.16.16,0,0,0-.15-.09c-.06,0-.11,0-.11-.06s-.07-.08-.18-.1-.17-.07-.17-.11S39.75,2,39.7,2a.16.16,0,0,1-.15-.09.39.39,0,0,0-.26-.14c-.11,0-.2-.07-.2-.1s-.08-.08-.18-.1a.31.31,0,0,1-.21-.13.16.16,0,0,0-.15-.09c-.06,0-.11,0-.11-.07s-.08-.08-.18-.1-.18-.07-.18-.1,0-.06-.11-.06A.17.17,0,0,1,37.82,1a.28.28,0,0,0-.21-.13c-.1,0-.18-.08-.18-.11s0-.06-.1-.06a.17.17,0,0,1-.15-.1A.29.29,0,0,0,37,.46c-.11,0-.17,0-.17-.1s-.07-.1-.14-.1a.38.38,0,0,1-.24-.08A.67.67,0,0,0,36.2.05c-.07,0-.13-.07-.13-.11S35.11-.14,35,0Z" transform="translate(0 0.13)"/><path class="cls-1" d="M34.85,13.6s-.15.06-.33.06-.32,0-.32.1a.11.11,0,0,1-.11.1.11.11,0,0,0-.1.1.11.11,0,0,1-.11.1.12.12,0,0,0-.11.13.12.12,0,0,1-.11.13c-.08,0-.11.08-.11.36s0,.36-.21.36-.22,0-.22-.1a.11.11,0,0,0-.1-.1.1.1,0,0,1-.11-.1c0-.07-.09-.09-.33-.09s-.32,0-.32-.1-.07-.1-.21-.1-.22,0-.22.1-.09.1-.32.1-.33,0-.33.09a.1.1,0,0,1-.1.1.11.11,0,0,0-.11.1.11.11,0,0,1-.11.1.1.1,0,0,0-.11.1.1.1,0,0,1-.11.09c-.06,0-.1.07-.1.17a.42.42,0,0,1-.12.28c-.13.12-.1.68,0,.72s.08.11.08.21,0,.19.1.19.12.07.14.17.08.16.12.16a.07.07,0,0,1,.07.08,3.93,3.93,0,0,0,1.12.94c.09,0,.17.08.17.13a.1.1,0,0,0,.11.09c.06,0,.11,0,.11.06s.1.08.21.1.22.09.22.14a.1.1,0,0,0,.11.09s.1,0,.1.06.1.08.22.11.21.06.21.09.1.08.22.1.22.07.22.1.1.07.21.1.22.06.22.1.1.07.21.09.22.08.22.11,0,.06.11.06.1,0,.1-.07a.34.34,0,0,1,.11-.17.36.36,0,0,0,.11-.23c0-.06,0-.12.07-.12s.09-.08.12-.18a.51.51,0,0,1,.15-.26.48.48,0,0,0,.09-.29c0-.12,0-.19.11-.19s.11-.06.11-.18,0-.21.1-.23a.22.22,0,0,0,.11-.21.39.39,0,0,1,.11-.26.47.47,0,0,0,.11-.29c0-.11,0-.2.08-.21s.1-.2.12-.4.06-.37.09-.37a1.3,1.3,0,0,0,.07-.59,1.27,1.27,0,0,0-.07-.59s-.08-.12-.1-.27a.51.51,0,0,0-.11-.3.13.13,0,0,1-.08-.12.1.1,0,0,0-.11-.09.11.11,0,0,1-.11-.1.1.1,0,0,0-.1-.1.18.18,0,0,1-.14-.1c0-.07-.15-.1-.44-.1s-.4,0-.4-.06-.05-.07-.1-.07S34.85,13.56,34.85,13.6Z" transform="translate(0 0.13)"/><path class="cls-1" d="M45.14,22.08c-.13,0-.23.05-.23.08a1.2,1.2,0,0,1-.51.08,1.63,1.63,0,0,0-.56.09,1,1,0,0,1-.44.11.82.82,0,0,0-.42.11s-.17.07-.34.07-.32,0-.32.1-.09.1-.32.1-.33,0-.33.09-.07.1-.21.1-.22,0-.22.1-.07.1-.21.1-.22,0-.22.1-.07.09-.21.09a.61.61,0,0,0-.32.1.53.53,0,0,1-.29.1c-.11,0-.18,0-.18.1s-.07.1-.15.1-.14,0-.14.09-.07.1-.22.1-.21,0-.21.1-.07.1-.18.1-.18,0-.18.1-.07.09-.15.09-.14.05-.14.1-.06.1-.17.1a.27.27,0,0,0-.22.1.17.17,0,0,1-.15.1.1.1,0,0,0-.11.1c0,.05-.06.09-.18.09s-.18,0-.18.1a.11.11,0,0,1-.1.1.1.1,0,0,0-.11.1c0,.05-.07.1-.15.1s-.14,0-.14.09a.1.1,0,0,1-.11.1s-.1,0-.1.07-.08.08-.18.1-.18.08-.18.13a.1.1,0,0,1-.11.09.11.11,0,0,0-.11.1.11.11,0,0,1-.11.1.11.11,0,0,0-.1.1.11.11,0,0,1-.11.1.1.1,0,0,0-.11.09c0,.06,0,.1-.06.1a5,5,0,0,0-1,.92s-.05.06-.11.06a.11.11,0,0,0-.1.1.11.11,0,0,1-.11.1.1.1,0,0,0-.11.1.1.1,0,0,1-.11.09c-.05,0-.1,0-.1.07s-.05.07-.11.07-.11,0-.11-.07-.05-.07-.11-.07a.1.1,0,0,1-.11-.09c0-.07-.07-.1-.21-.1s-.22,0-.22-.09-.09-.11-.21-.14-.22-.07-.22-.1-.09-.07-.21-.1-.22-.06-.22-.09-.09-.08-.21-.1-.22-.07-.22-.11-.09-.06-.22-.06-.21,0-.21-.09-.09-.1-.34-.11c-.61,0-.85,0-.9.11a.22.22,0,0,1-.16.09.11.11,0,0,0-.11.1.11.11,0,0,1-.11.1.11.11,0,0,0-.11.1.11.11,0,0,1-.1.1.1.1,0,0,0-.11.09.1.1,0,0,1-.11.1.11.11,0,0,0-.11.1.11.11,0,0,1-.1.1c-.06,0-.11,0-.11.07a7.38,7.38,0,0,1-.83.82c-.45.42-.82.77-.82.79a2.43,2.43,0,0,1-.44.46,2.5,2.5,0,0,0-.43.47s-.05.07-.1.07a.1.1,0,0,0-.11.1.1.1,0,0,1-.11.09.11.11,0,0,0-.11.1.11.11,0,0,1-.11.1.11.11,0,0,0-.1.1.11.11,0,0,1-.11.1.1.1,0,0,0-.11.09.1.1,0,0,1-.11.1.11.11,0,0,0-.1.1.12.12,0,0,1-.11.1.1.1,0,0,0-.11.1c0,.07-.09.1-.32.1s-.33,0-.36-.1-.13-.1-.33-.1-.28,0-.28-.1-.08-.1-.21-.1-.22,0-.24-.07-.19-.08-.38-.1a.78.78,0,0,1-.42-.13c0-.06-.18-.09-.37-.09s-.32,0-.34-.08-.24-.09-.6-.1a2.05,2.05,0,0,1-.67-.11,7.64,7.64,0,0,0-2.14,0c0,.06-.24.08-.75.08s-.72,0-.75.1-.15.1-.35.1a.78.78,0,0,0-.43.1.75.75,0,0,1-.4.1c-.19,0-.31,0-.33.09s-.15.1-.32.1-.29,0-.29.09-.11.11-.3.13a.69.69,0,0,0-.33.1s-.12.08-.23.08-.21,0-.21.09a.11.11,0,0,1-.22,0,.1.1,0,0,0-.11-.09.11.11,0,0,1-.1-.1.1.1,0,0,0-.11-.1.11.11,0,0,1-.11-.1.11.11,0,0,0-.11-.1.11.11,0,0,1-.11-.1.1.1,0,0,0-.1-.09.11.11,0,0,1-.11-.1.11.11,0,0,0-.11-.1.11.11,0,0,1-.11-.1.11.11,0,0,0-.1-.1.1.1,0,0,1-.11-.09.1.1,0,0,0-.11-.1.11.11,0,0,1-.11-.1.11.11,0,0,0-.11-.1.1.1,0,0,1-.1-.1.1.1,0,0,0-.11-.09.11.11,0,0,1-.11-.1.11.11,0,0,0-.11-.1.11.11,0,0,1-.1-.1.11.11,0,0,0-.11-.1.1.1,0,0,1-.11-.09.1.1,0,0,0-.11-.1.12.12,0,0,1-.11-.1.11.11,0,0,0-.1-.1.1.1,0,0,1-.11-.1.1.1,0,0,0-.11-.09.11.11,0,0,1-.11-.1.11.11,0,0,0-.1-.1.11.11,0,0,1-.11-.1.11.11,0,0,0-.11-.1.1.1,0,0,1-.11-.09.1.1,0,0,0-.1-.1.11.11,0,0,1-.11-.1.11.11,0,0,0-.11-.1.1.1,0,0,1-.11-.1.08.08,0,0,0-.08-.09,1.23,1.23,0,0,1-.49-.44c0-.09-.28-.28-.47-.32s-.18-.07-.18-.1-.11-.06-.25-.06-.25,0-.25.06-.09.08-.19.1-.39.19-.39.3,0,.08-.1.1-.11.15-.14.3-.07.25-.11.25-.09.11-.11.23-.08.23-.11.23-.07.12-.1.27-.07.29-.11.3a.63.63,0,0,0-.08.38c0,.23,0,.37-.1.4s-.11.22-.13.56a1.11,1.11,0,0,1-.11.56,1.66,1.66,0,0,0-.1.59,1.38,1.38,0,0,1-.11.59,2.52,2.52,0,0,0-.11.89,2,2,0,0,1-.12.87,10.42,10.42,0,0,0-.08,2.24v2.22H4.93a5.4,5.4,0,0,1-1-.07,14.5,14.5,0,0,0-1.79-.11l-1.6,0-.18.16a.54.54,0,0,0-.19.3c0,.09,0,.15-.07.15s-.07.11-.07.23,0,.23.07.23.07.07.07.16,0,.17.11.17a.1.1,0,0,1,.11.09s.11.1.29.12a.81.81,0,0,1,.35.1,7.53,7.53,0,0,0,1.39.08,4.87,4.87,0,0,1,1.4.11,3,3,0,0,0,1,.1l.93,0,0,1.45,0,1.46H5.54c-.12,0-.22,0-.25.09s-.15.1-.42.1a1.39,1.39,0,0,0-.52.1,1.15,1.15,0,0,1-.56.1c-.32,0-.41,0-.41.1s-.1.09-.41.09a.89.89,0,0,0-.5.1.8.8,0,0,1-.46.1c-.2,0-.36,0-.37.08a1,1,0,0,1-.44.1c-.28,0-.41.06-.41.12s-.06.09-.14.09a.59.59,0,0,0-.31.15c-.13.12-.16.22-.16.55s0,.41.24.62.27.22.82.22a1.46,1.46,0,0,0,.61-.07,1,1,0,0,1,.44-.11,1,1,0,0,0,.43-.1,1.23,1.23,0,0,1,.51-.1,1.72,1.72,0,0,0,.53-.11,2.17,2.17,0,0,1,.48-.1,1.37,1.37,0,0,0,.43-.1,2.52,2.52,0,0,1,.56-.1l.52,0v6.09c0,3.68,0,6.07.06,6s.09.05.12.15.08.19.34.23a.69.69,0,0,1,.33.1s8.6.07,29.07.07c25.75,0,29.06,0,29.1-.1s.13-.09.25-.09.22,0,.22-.1a.11.11,0,0,1,.11-.1c.07,0,.11-.07.11-.2s0-.19.07-.19a30.67,30.67,0,0,0,.07-3.4,30.67,30.67,0,0,0-.07-3.4s-.07-.09-.07-.2,0-.19-.11-.19a.11.11,0,0,1-.11-.1c0-.07-.07-.1-.21-.1a.29.29,0,0,1-.25-.1s-.12-.09-.22-.09-.18,0-.18.09-.07.1-.22.1-.21,0-.21.1a.11.11,0,0,1-.1.1c-.08,0-.12.12-.15.4a1,1,0,0,1-.14.47c-.06,0-.06.06,0,.09s.13.28,0,.28a32.49,32.49,0,0,0,0,4.73q.09,0,0,0a.12.12,0,0,0-.09.11c0,.08-3.15.1-27.92.1H7.69V44.65H7.9a.54.54,0,0,0,.31-.09,1.25,1.25,0,0,1,.52-.12.9.9,0,0,0,.45-.11s.17-.07.38-.07a.88.88,0,0,0,.44-.09,1.08,1.08,0,0,1,.45-.12.86.86,0,0,0,.39-.11.14.14,0,0,1,.12-.08.09.09,0,0,0,.1-.09.11.11,0,0,1,.11-.1c.09,0,.11-.1.11-.49s0-.49-.11-.49a.12.12,0,0,1-.11-.1c0-.07-.07-.1-.21-.1s-.22,0-.22-.1-.09-.09-.39-.09-.4,0-.4.09-.1.1-.46.1-.47,0-.47.1-.09.1-.43.1-.43,0-.43.1-.07.09-.18.09H7.69V40.53h.78c.6,0,.81,0,.9.1a.84.84,0,0,0,.5.1c.31,0,.4,0,.4-.1s.08-.1.29-.1.29,0,.29-.16a.23.23,0,0,1,.11-.21c.08,0,.1-.14.1-.42s0-.39-.1-.39a.1.1,0,0,1-.11-.09.09.09,0,0,0-.08-.1.41.41,0,0,1-.18-.1A1,1,0,0,0,10,39c-.26,0-.46,0-.46-.06a3.93,3.93,0,0,0-.94-.1l-.93,0v-2.2a17,17,0,0,1,.07-2.27,4.83,4.83,0,0,0,.12-1.06,4.22,4.22,0,0,1,.1-1,2.5,2.5,0,0,0,.1-.62A1.89,1.89,0,0,1,8.19,31a.85.85,0,0,0,.11-.4c0-.21.07-.39.11-.39s.07-.12.09-.27c.05-.32.11-.38.22-.23a.3.3,0,0,0,.18.11.09.09,0,0,1,.08.1.11.11,0,0,0,.11.1c.06,0,.11,0,.11.06s.26.33.36.33.07,0,.07.1a.1.1,0,0,0,.11.09.11.11,0,0,1,.1.1.11.11,0,0,0,.11.1.11.11,0,0,1,.11.1.11.11,0,0,0,.11.1.1.1,0,0,1,.1.09.1.1,0,0,0,.11.1c.06,0,.11,0,.11.07a1.25,1.25,0,0,0,.29.32,1,1,0,0,1,.28.33s.06.07.11.07a.1.1,0,0,1,.11.1.09.09,0,0,0,.09.09c.1,0,.34.23.34.33s0,.07.11.07a.1.1,0,0,1,.11.09.1.1,0,0,0,.1.1.11.11,0,0,1,.11.1.11.11,0,0,0,.11.1.1.1,0,0,1,.11.1.1.1,0,0,0,.11.09.11.11,0,0,1,.1.1.11.11,0,0,0,.11.1.11.11,0,0,1,.11.1c0,.07.09.1.32.1s.33,0,.33.06.05.07.1.07.11,0,.11-.07.15-.06.33-.06.33,0,.29-.1,0-.1.21-.1.25,0,.25-.1.08-.1.29-.1.28,0,.28-.09.08-.1.26-.1.25,0,.25-.1.08-.1.32-.1.32,0,.32-.1.1-.09.39-.09.4,0,.43-.1.18-.1.66-.1.64,0,.72-.1.3-.1,1-.1.87,0,.9.1.17.1.57.1.56,0,.64.1a.73.73,0,0,0,.39.1c.22,0,.3,0,.3.09s.08.1.32.1.32,0,.32.1.09.1.33.1.32,0,.32.1.07.09.22.09.21,0,.21.1.07.1.22.1.21,0,.21.1.12.1.61.1.61,0,.61-.1.07-.1.15-.1.14-.05.14-.1a.11.11,0,0,1,.11-.1.1.1,0,0,0,.11-.09.1.1,0,0,1,.11-.1.11.11,0,0,0,.1-.1c0-.05,0-.1.07-.1s.08,0,.08-.1a.1.1,0,0,1,.1-.09.11.11,0,0,0,.11-.1.11.11,0,0,1,.11-.1.11.11,0,0,0,.11-.1.11.11,0,0,1,.11-.1.1.1,0,0,0,.1-.09.1.1,0,0,1,.11-.1.11.11,0,0,0,.11-.1.11.11,0,0,1,.11-.1.1.1,0,0,0,.1-.09,1.57,1.57,0,0,1,.36-.42,1.42,1.42,0,0,0,.36-.4s.05-.07.11-.07a.11.11,0,0,0,.11-.1.11.11,0,0,1,.11-.1s.1,0,.1-.07a10.69,10.69,0,0,1,1-1c1-.9,1-.92,1.26-.88s.25.07.25.1.1.08.21.1.22.07.22.1.1.07.22.1.21.06.21.1.1.07.22.09.21.08.21.24,0,.19-.11.19-.1.06-.1.16,0,.17-.11.17a.12.12,0,0,0-.11.13.12.12,0,0,1-.11.13c-.06,0-.1.06-.1.16s0,.16-.11.16a.13.13,0,0,0-.11.14c0,.07,0,.13-.06.13s-.1.06-.13.14a.72.72,0,0,1-.14.24.28.28,0,0,0-.1.21.12.12,0,0,1-.11.13c-.07,0-.11.06-.11.19s0,.2-.1.2S31,32,31,32.16s0,.2-.11.2-.11.06-.11.2,0,.19-.11.19-.1.07-.1.2,0,.19-.11.19-.11.07-.11.2,0,.2-.07.2-.09.11-.12.26a.64.64,0,0,1-.14.33.29.29,0,0,0-.1.22.22.22,0,0,1-.07.18c-.05,0-.1.14-.12.28a.62.62,0,0,1-.12.3.71.71,0,0,0-.11.36.61.61,0,0,1-.1.36.71.71,0,0,0-.11.29.66.66,0,0,1-.1.3.79.79,0,0,0-.11.4.9.9,0,0,1-.09.38.93.93,0,0,0-.11.42c0,.24-.07.43-.11.43a1.91,1.91,0,0,0-.11.63,1.82,1.82,0,0,1-.13.69,27.8,27.8,0,0,0,0,4.28,1.58,1.58,0,0,1,.13.62,1.27,1.27,0,0,0,.12.57,1.11,1.11,0,0,1,.11.46,1,1,0,0,0,.1.46.63.63,0,0,1,.09.3.63.63,0,0,0,.1.35.57.57,0,0,1,.12.28c0,.14.08.25.12.25s.07.05.07.12a.36.36,0,0,0,.09.22.6.6,0,0,1,.15.26c0,.1.08.18.12.18s.07.06.07.12a.34.34,0,0,0,.09.22,1,1,0,0,1,.15.2.16.16,0,0,0,.12.11s.07.08.07.17,0,.16.11.16a.11.11,0,0,1,.11.1.17.17,0,0,0,.1.14.21.21,0,0,1,.11.19c0,.1.05.16.11.16a.11.11,0,0,1,.11.1.11.11,0,0,0,.11.1.1.1,0,0,1,.1.09.1.1,0,0,0,.11.1.11.11,0,0,1,.11.1.11.11,0,0,0,.11.1.1.1,0,0,1,.1.1.1.1,0,0,0,.11.09.11.11,0,0,1,.11.1.11.11,0,0,0,.11.1.11.11,0,0,1,.11.1c0,.06.06.1.17.1s.21,0,.23.09a.16.16,0,0,0,.14.1.1.1,0,0,1,.1.1c0,.07.07.1.22.1s.21,0,.21.1.07.09.22.09.21,0,.21.1.08.1.22.1.22,0,.22.1.1.1.53.1.54,0,.54.09.14.1.83.1.84,0,.87-.1.16-.09.47-.09.42,0,.42-.1.08-.1.29-.1.28,0,.28-.1.08-.1.22-.1.22,0,.22-.09.06-.1.14-.1.14,0,.14-.1.07-.1.18-.1.18,0,.18-.1a.1.1,0,0,1,.11-.09.11.11,0,0,0,.11-.1.11.11,0,0,1,.11-.1.11.11,0,0,0,.1-.1.11.11,0,0,1,.11-.1A.1.1,0,0,0,40,50a.1.1,0,0,1,.11-.1.11.11,0,0,0,.1-.1.11.11,0,0,1,.11-.1.1.1,0,0,0,.11-.1.1.1,0,0,1,.11-.09c.06,0,.11-.06.11-.17a.23.23,0,0,1,.1-.2c.06,0,.11-.08.11-.13a.1.1,0,0,1,.11-.09c.06,0,.11-.06.11-.17a.21.21,0,0,1,.1-.2.29.29,0,0,0,.14-.2c0-.08.08-.15.12-.15s.07-.06.07-.13a.12.12,0,0,1,.11-.13c.07,0,.1-.07.1-.2s0-.2.11-.2.11-.07.11-.26,0-.26.11-.26.1-.08.1-.29,0-.3.11-.3.11-.08.11-.32,0-.33.11-.33.11-.11.11-.52,0-.54.1-.57.11-.19.11-.85,0-.8.09-.79.1-.18.11-.75,0-.77-.09-.77-.11-.13-.11-.88,0-.88-.11-.88-.1-.1-.1-.47,0-.49-.11-.55a.65.65,0,0,1-.11-.43c0-.24,0-.32-.11-.32s-.11-.08-.11-.29,0-.3-.1-.32-.11-.13-.11-.27a.5.5,0,0,0-.11-.33.47.47,0,0,1-.11-.3c0-.12,0-.19-.1-.19s-.11-.06-.11-.2a.47.47,0,0,0-.11-.3.43.43,0,0,1-.11-.29c0-.12,0-.19-.11-.19s-.1-.06-.1-.2,0-.19-.11-.19-.11-.07-.11-.2,0-.19-.11-.19a.11.11,0,0,1-.1-.1c0-.05,0-.1-.07-.1s-.09-.09-.11-.2-.1-.19-.16-.19-.1-.07-.1-.2,0-.19-.1-.19a.11.11,0,0,1-.11-.1s0-.1-.07-.1-.08-.09-.11-.2-.09-.19-.15-.19a.1.1,0,0,1-.1-.1.11.11,0,0,0-.12-.1c-.07,0-.1,0-.07-.1a.21.21,0,0,0-.1-.21.35.35,0,0,1-.14-.19.1.1,0,0,0-.11-.09.1.1,0,0,1-.11-.09c0-.06,0-.1-.07-.1s-.07,0-.07-.1a.11.11,0,0,0-.11-.1.1.1,0,0,1-.11-.1.77.77,0,0,0-.25-.31.84.84,0,0,1-.25-.3S38,31,37.9,31a.11.11,0,0,1-.11-.1.11.11,0,0,0-.1-.1.11.11,0,0,1-.11-.1.11.11,0,0,0-.11-.1.1.1,0,0,1-.11-.09c0-.06,0-.1-.08-.1a1.45,1.45,0,0,1-.4-.3,1.28,1.28,0,0,0-.42-.29.1.1,0,0,1-.1-.1.11.11,0,0,0-.11-.1.1.1,0,0,1-.11-.09c0-.06,0-.1-.07-.1a.53.53,0,0,1-.22-.13c-.17-.16-.19-.46,0-.46s.11,0,.11-.07a11.34,11.34,0,0,1,1.58-1.43s.07,0,.07-.1a.11.11,0,0,1,.11-.1.2.2,0,0,0,.15-.1.18.18,0,0,1,.14-.1.09.09,0,0,0,.1-.09c0-.05.08-.11.18-.13s.18-.07.18-.1.05-.07.11-.07a.1.1,0,0,0,.11-.1.1.1,0,0,1,.1-.09.17.17,0,0,0,.15-.1.29.29,0,0,1,.22-.1c.11,0,.17,0,.17-.1a.11.11,0,0,1,.11-.1.17.17,0,0,0,.15-.09.25.25,0,0,1,.22-.1c.1,0,.17,0,.17-.1s.07-.1.21-.1.22,0,.22-.1.06-.09.14-.09a.49.49,0,0,0,.25-.1.34.34,0,0,1,.21-.1.33.33,0,0,0,.2-.09.76.76,0,0,1,.3-.13c.11,0,.19-.07.19-.11s.1-.06.22-.06.21,0,.21-.1.08-.1.22-.1.22,0,.22-.1.08-.1.34-.1h.45c.07,0,.06,0,0-.08s-.12-.1,0-.1.3,0,.53,0,.41,0,.41-.11.1-.1.47-.1.46,0,.46-.08,0-.05.07,0,.08.08.08,0,.12-.11,1.5-.11,1.51,0,1.51.09.1.1.47.1.47,0,.47.1.08.1.32.1.32,0,.32.1.08.09.29.09.29,0,.29.1.07.1.21.1a.29.29,0,0,1,.25.1.26.26,0,0,0,.22.1c.12,0,.18,0,.18.1s.07.09.22.09.21,0,.21.1a.11.11,0,0,0,.1.1.18.18,0,0,1,.15.1.26.26,0,0,0,.22.1c.11,0,.18,0,.18.09a.1.1,0,0,0,.11.1.11.11,0,0,1,.1.1.11.11,0,0,0,.11.1.1.1,0,0,1,.11.1.1.1,0,0,0,.11.09C53,26,53,26,53,26s0,.06.1.06a.11.11,0,0,1,.11.1.11.11,0,0,0,.11.1.11.11,0,0,1,.11.1.11.11,0,0,0,.1.1.1.1,0,0,1,.11.09.1.1,0,0,0,.11.1.11.11,0,0,1,.11.1.11.11,0,0,0,.11.1.1.1,0,0,1,.1.09c0,.05,0,.1.11.13a.16.16,0,0,1,.11.14.11.11,0,0,0,.11.1.1.1,0,0,1,.1.09.1.1,0,0,0,.11.1c.07,0,.11.06.11.16a.24.24,0,0,0,.11.2A.14.14,0,0,1,55,28a.11.11,0,0,0,.1.1c.07,0,.11.06.11.16a.21.21,0,0,0,.11.19c.06,0,.11.07.11.11a.34.34,0,0,0,.1.17.38.38,0,0,1,.11.23.12.12,0,0,0,.11.12c.06,0,.11.06.11.16a.21.21,0,0,0,.11.19.23.23,0,0,1,.1.2.23.23,0,0,0,.11.2.22.22,0,0,1,.11.2c0,.09,0,.16.06.16s.1.09.12.21a.84.84,0,0,0,.15.3.41.41,0,0,1,.1.28c0,.13,0,.19.11.19s.11.07.11.2,0,.2.1.2.11.06.11.19,0,.2.11.2a.1.1,0,0,1,.11.1s0,.09.06.09.09.09.12.2.09.2.15.2a.1.1,0,0,1,.1.09c0,.06,0,.1.07.1s.07,0,.07.1a.1.1,0,0,0,.1.1c.06,0,.12.08.15.19s.1.2.15.2a.1.1,0,0,1,.1.1.11.11,0,0,0,.11.1c.06,0,.11,0,.11.06s.08.08.18.11.18.07.18.13a.1.1,0,0,0,.11.09.36.36,0,0,1,.22.1.45.45,0,0,0,.25.09c.07,0,.14.05.14.1s.07.1.21.1.22,0,.22.1.08.1.29.1a.76.76,0,0,1,.4.09.5.5,0,0,0,.31.1c.16,0,.21,0,.25.17s.08.16.11.16.08.08.08.2,0,.19.1.19a.12.12,0,0,1,.11.13.33.33,0,0,0,.11.22A.37.37,0,0,1,62,36a.1.1,0,0,0,.1.11c.06,0,.12.07.14.16s.08.16.12.16.07.05.07.1a.11.11,0,0,0,.11.1.12.12,0,0,1,.1.13.12.12,0,0,0,.11.13.11.11,0,0,1,.11.1.11.11,0,0,0,.11.1c.05,0,.1,0,.1.06s.06.07.11.07a.1.1,0,0,1,.11.09c0,.05.1.11.22.14s.21.08.21.13a.1.1,0,0,0,.11.09c.06,0,.11,0,.11.06s.1.08.21.11.22.06.22.1a.65.65,0,0,0,.32.09c.18,0,.32.07.32.1s.14.07.31.08.31,0,.33.2,0,.19-.09.22-.11.12-.11.23,0,.19-.11.19-.11.06-.11.16a.22.22,0,0,1-.11.2.23.23,0,0,0-.11.2c0,.1,0,.16-.1.16a.11.11,0,0,0-.11.12.38.38,0,0,1-.11.23.29.29,0,0,0-.11.16s0,.07-.1.07a.12.12,0,0,0-.11.13.38.38,0,0,1-.11.23.29.29,0,0,0-.11.16s0,.07-.11.07a.11.11,0,0,0-.1.1.11.11,0,0,1-.11.1.1.1,0,0,0-.11.1.1.1,0,0,1-.11.09.11.11,0,0,0-.1.1.11.11,0,0,1-.11.1.11.11,0,0,0-.11.1.11.11,0,0,1-.11.1s-.11,0-.11.09a.1.1,0,0,1-.1.1.11.11,0,0,0-.11.1.11.11,0,0,1-.11.1.1.1,0,0,0-.11.1.11.11,0,0,1-.1.1.1.1,0,0,0-.11.09c0,.07-.07.1-.22.1s-.21,0-.21.1a.11.11,0,0,1-.11.1.1.1,0,0,0-.11.1q0,.09-.21.09c-.15,0-.22,0-.22.1s-.07.1-.22.1-.21,0-.21.1-.07.1-.22.1-.21,0-.21.09-.09.1-.33.1-.32,0-.32.1-.09.1-.4.1-.44,0-.5.1-.32.09-1.12.09-1,0-1,.08,0,.07,0,0a3.24,3.24,0,0,0-1-.1c-.69,0-1,0-1-.1s-.15-.08-.34-.08-.32,0-.32-.1-.08-.1-.32-.1-.32,0-.32-.1-.08-.09-.22-.09-.21,0-.21-.1-.08-.1-.22-.1-.22,0-.22-.1-.06-.1-.17-.1-.21,0-.23-.09a.16.16,0,0,0-.14-.1.1.1,0,0,1-.1-.1c0-.07-.07-.1-.22-.1s-.21,0-.21-.1a.1.1,0,0,0-.11-.09.11.11,0,0,1-.11-.1.1.1,0,0,0-.11-.1.11.11,0,0,1-.1-.1.11.11,0,0,0-.11-.1.1.1,0,0,1-.11-.1.1.1,0,0,0-.11-.09.11.11,0,0,1-.11-.1s0-.1-.06-.1-.09-.09-.12-.2-.09-.19-.15-.19a.11.11,0,0,1-.1-.1.11.11,0,0,0-.1-.1c-.07,0-.11-.06-.11-.15a.23.23,0,0,0-.11-.2.16.16,0,0,1-.11-.14s0-.1-.06-.1-.09-.09-.12-.19-.07-.2-.1-.2-.08-.09-.11-.19-.08-.2-.12-.2a.41.41,0,0,1-.18-.1,1,1,0,0,0-.54-.1c-.33,0-.42,0-.42.1a.1.1,0,0,1-.09.1c-.23,0-.38.29-.37.71a.86.86,0,0,0,.08.45.45.45,0,0,1,.13.23c0,.1.08.18.11.18s.08.08.1.19.1.2.15.2a.11.11,0,0,1,.11.1s0,.1.06.1.09.08.11.19.08.2.12.2.06,0,.06.1a.11.11,0,0,0,.11.1.1.1,0,0,1,.11.09.1.1,0,0,0,.11.1.11.11,0,0,1,.11.1.11.11,0,0,0,.1.1c.06,0,.11,0,.11.06s.1.18.47.53.44.39.52.39a.09.09,0,0,1,.09.1.09.09,0,0,0,.1.09.18.18,0,0,1,.14.1.18.18,0,0,0,.15.1c.06,0,.11,0,.11.07s.08.07.18.1.18.08.18.13.08.09.22.09.21,0,.21.1.07.1.22.1.21,0,.21.1.08.09.22.09.21,0,.21.1.08.1.21.1.23,0,.24.07.15.08.31.11a.74.74,0,0,1,.33.1,1.19,1.19,0,0,0,.43.1,1,1,0,0,1,.44.1,3.57,3.57,0,0,0,1.06.1,4.44,4.44,0,0,1,1,.08s.1.06.21.06.22,0,.22-.07.24-.06.57-.06.58,0,.58.06.13.09.29.11.28.06.28.09.1.07.22.1.21.06.21.1.09.07.19.09a1,1,0,0,1,.35.2.53.53,0,0,0,.25.16.1.1,0,0,1,.08.1.11.11,0,0,0,.1.1c.06,0,.11,0,.11.07s.27.32.36.32a.15.15,0,0,1,.12.1.26.26,0,0,0,.21.1c.1,0,.17,0,.17.09s.12.1.31.12a.66.66,0,0,1,.33.11,3,3,0,0,0,1,.07c.73,0,1,0,1-.1a.64.64,0,0,1,.32-.1c.12,0,.22,0,.24-.09a.16.16,0,0,1,.12-.1,2.7,2.7,0,0,0,.79-.71.09.09,0,0,1,.09-.08s.1-.07.11-.17a.52.52,0,0,1,.12-.26c.16-.14.16-1.46,0-1.46s-.1-.07-.1-.2a.23.23,0,0,0-.11-.23.23.23,0,0,1-.11-.2c0-.1,0-.16-.11-.16a.1.1,0,0,1-.11-.09.1.1,0,0,0-.1-.1.11.11,0,0,1-.11-.1.11.11,0,0,0-.11-.1.1.1,0,0,1-.11-.1.1.1,0,0,0-.1-.09.1.1,0,1,1,0-.2.11.11,0,0,0,.1-.1.11.11,0,0,1,.11-.1c.06,0,.11,0,.11-.06A.5.5,0,0,1,65,42.6c.1-.09.18-.17.18-.2a.5.5,0,0,1,.14-.17.45.45,0,0,0,.15-.23.11.11,0,0,1,.1-.1.1.1,0,0,0,.11-.1.1.1,0,0,1,.11-.09.11.11,0,0,0,.11-.1s0-.1.06-.1.09-.09.12-.2.09-.19.15-.19.1,0,.1-.07a.34.34,0,0,1,.11-.17.4.4,0,0,0,.1-.23.12.12,0,0,1,.11-.12.11.11,0,0,0,.11-.1s0-.1.06-.1.09-.09.12-.19.07-.2.11-.2.08-.09.1-.19.08-.2.11-.2.07-.12.1-.26.07-.26.11-.26.09-.11.11-.23.08-.23.11-.23.08-.16.11-.36.07-.36.11-.36a.87.87,0,0,0,.11-.41,1.08,1.08,0,0,1,.12-.45,8.15,8.15,0,0,0,0-2.26A.64.64,0,0,1,68,34.4c0-.15-.07-.28-.1-.28s-.08-.09-.11-.19-.08-.2-.11-.2-.07,0-.07-.1a.1.1,0,0,0-.11-.09.11.11,0,0,1-.1-.1.11.11,0,0,0-.11-.1.1.1,0,0,1-.11-.09s-.06-.11-.15-.13-.13-.06-.1-.1-.07-.07-.28-.07-.33,0-.33-.1-.12-.1-.68-.1-.69,0-.69.1-.26.1-1.9.1-1.91,0-1.91-.1-.07-.1-.28-.1-.29,0-.29-.1-.06-.09-.14-.09-.15-.05-.15-.1-.07-.1-.21-.1-.22,0-.22-.1a.11.11,0,0,0-.11-.1.1.1,0,0,1-.1-.09c0-.06,0-.1-.07-.1s-.08-.09-.11-.2-.1-.19-.15-.19a.1.1,0,0,1-.11-.1c0-.05-.05-.1-.1-.13a.18.18,0,0,1-.11-.16.18.18,0,0,0-.11-.16.16.16,0,0,1-.11-.14c0-.05,0-.1-.06-.1s-.09-.09-.12-.2-.07-.19-.11-.19-.09-.12-.11-.26-.07-.26-.1-.26-.08-.11-.1-.23-.08-.23-.11-.23-.08-.09-.11-.2-.07-.19-.11-.19-.08-.1-.11-.2-.07-.2-.11-.2-.07-.09-.1-.19-.08-.2-.11-.2-.08-.07-.1-.16-.08-.17-.12-.17a.08.08,0,0,1-.07-.09.16.16,0,0,0-.11-.14.24.24,0,0,1-.1-.2c0-.09,0-.15-.1-.15s-.13-.08-.15-.17a.84.84,0,0,0-.22-.32.51.51,0,0,1-.18-.23.14.14,0,0,0-.1-.11.3.3,0,0,1-.15-.19c0-.09-.07-.16-.11-.16s-.07,0-.07-.1a.11.11,0,0,0-.11-.1.1.1,0,0,1-.11-.09.1.1,0,0,0-.11-.1.11.11,0,0,1-.1-.1.11.11,0,0,0-.11-.1.1.1,0,0,1-.11-.1.1.1,0,0,0-.11-.09.11.11,0,0,1-.1-.1.1.1,0,0,0-.11-.1.11.11,0,0,1-.11-.1.11.11,0,0,0-.11-.1.1.1,0,0,1-.11-.09.1.1,0,0,0-.1-.1.11.11,0,0,1-.11-.1.11.11,0,0,0-.11-.1.1.1,0,0,1-.11-.1.11.11,0,0,0-.1-.1.1.1,0,0,1-.11-.09c0-.07-.07-.1-.22-.1s-.21,0-.21-.1a.11.11,0,0,0-.11-.1.1.1,0,0,1-.11-.1.1.1,0,0,0-.11-.09.11.11,0,0,1-.1-.1c0-.07-.08-.1-.22-.1s-.22,0-.22-.1-.06-.1-.17-.1a.26.26,0,0,1-.21-.09c0-.06-.12-.1-.22-.1a.25.25,0,0,1-.21-.1.29.29,0,0,0-.26-.1c-.15,0-.22,0-.22-.1s-.07-.09-.21-.09-.22,0-.22-.1-.08-.1-.29-.1a.75.75,0,0,1-.4-.1.66.66,0,0,0-.35-.1c-.13,0-.25,0-.27-.07s-.23-.1-.54-.11a1.32,1.32,0,0,1-.52-.07s0-.06-.09-.07S45.37,22.05,45.14,22.08ZM34.63,30.69s.07.1.15.1a.75.75,0,0,1,.35.2,1.27,1.27,0,0,0,.29.19s.07.05.07.1a.11.11,0,0,0,.11.1.1.1,0,0,1,.11.1.11.11,0,0,0,.11.1.1.1,0,0,1,.11.09.1.1,0,0,0,.1.1.11.11,0,0,1,.11.1.11.11,0,0,0,.11.1.1.1,0,0,1,.11.1.1.1,0,0,0,.1.09.11.11,0,0,1,.11.1.11.11,0,0,0,.11.1.11.11,0,0,1,.11.1.11.11,0,0,0,.11.1.1.1,0,0,1,.1.09c0,.06,0,.1.07.1a.07.07,0,0,1,.08.07.25.25,0,0,0,.13.17c.06.06.08.08,0,.06s-.09,0-.09,0,.05.07.11.07a.11.11,0,0,1,.1.1.11.11,0,0,0,.11.1.11.11,0,0,1,.11.1c0,.05,0,.1.07.1a.08.08,0,0,1,.07.09.35.35,0,0,0,.15.21.36.36,0,0,1,.14.2.08.08,0,0,0,.07.08c.05,0,.07.05.07.1a.38.38,0,0,0,.15.21.36.36,0,0,1,.14.2.08.08,0,0,0,.07.08s.08.09.11.2.07.19.11.19.08.08.1.17.08.16.11.16.08.06.08.13a.37.37,0,0,0,.1.22.77.77,0,0,1,.16.27c0,.09.07.17.1.17s.07.05.07.12a.32.32,0,0,0,.1.22.84.84,0,0,1,.15.3c0,.11.07.21.1.21s.08.12.1.27.08.29.12.3.07.14.07.28a.4.4,0,0,0,.1.3.55.55,0,0,1,.13.38.92.92,0,0,0,.11.35,1,1,0,0,1,.12.5,2.19,2.19,0,0,0,.1.49,2.46,2.46,0,0,1,.11.79,1.88,1.88,0,0,0,.12.77,3.15,3.15,0,0,1,0,1.4,2.94,2.94,0,0,0-.12.87,3.56,3.56,0,0,1-.11.89s-.1.22-.11.44a.82.82,0,0,1-.13.47.43.43,0,0,0-.1.32c0,.16,0,.26-.11.29a.25.25,0,0,0-.11.23c0,.11,0,.2-.06.2s-.09.08-.12.2-.07.19-.1.19-.08.09-.11.2-.08.19-.12.19-.07.08-.1.17-.08.16-.1.16-.08.09-.11.2-.1.19-.15.19-.1,0-.1.07a.5.5,0,0,1-.18.22c-.1.09-.18.18-.18.23s0,.07-.11.07a.11.11,0,0,0-.11.1.11.11,0,0,1-.11.1.1.1,0,0,0-.1.1.1.1,0,0,1-.11.09.16.16,0,0,0-.15.09.31.31,0,0,1-.22.14c-.1,0-.16.07-.13.1s0,.07-.14.07-.19,0-.19.09-.08.1-.31.1a.73.73,0,0,0-.43.1,2.93,2.93,0,0,1-1.56,0c0-.07-.08-.1-.32-.1s-.32,0-.32-.1-.08-.09-.22-.09-.21,0-.21-.1-.08-.1-.22-.1-.22,0-.22-.1a.11.11,0,0,0-.1-.1.1.1,0,0,1-.11-.09.1.1,0,0,0-.11-.1.11.11,0,0,1-.11-.1s0-.1-.07-.1-.36-.24-.36-.33,0-.06-.11-.06a.11.11,0,0,1-.1-.1.11.11,0,0,0-.11-.1.1.1,0,0,1-.11-.1.1.1,0,0,0-.11-.09c-.06,0-.1-.06-.1-.16a.23.23,0,0,0-.11-.2.15.15,0,0,1-.11-.13.1.1,0,0,0-.11-.1c-.06,0-.1,0-.1,0s0-.34-.11-.34-.11-.07-.11-.2,0-.2-.11-.2-.1,0-.1,0c0-.22,0-.47-.11-.47s-.11-.08-.11-.29,0-.3-.11-.3-.11-.08-.11-.38,0-.4-.08-.41-.1-.23-.12-.59a1.3,1.3,0,0,0-.11-.59,21.08,21.08,0,0,1,0-4.05,1.11,1.11,0,0,0,.09-.55c0-.34,0-.51.1-.58s.11-.22.11-.46,0-.38.11-.4.11-.13.11-.32a.54.54,0,0,1,.11-.38.74.74,0,0,0,.11-.37c0-.17.06-.26.12-.26s.09-.1.09-.3,0-.29.11-.29.1-.08.1-.3,0-.29.11-.29.11-.07.11-.22a.52.52,0,0,1,.11-.33.39.39,0,0,0,.11-.26c0-.11,0-.17.1-.17s.11-.07.11-.2,0-.19.11-.19.11-.07.11-.2,0-.2.1-.2.11-.06.11-.19,0-.2.11-.2.11-.06.11-.19,0-.2.11-.2.1-.07.1-.2,0-.19.11-.19a.11.11,0,0,0,.11-.1.11.11,0,0,1,.11-.1c.07,0,.1-.06.1-.19s0-.2.11-.2.11-.06.11-.16,0-.17.11-.17a.12.12,0,0,0,.11-.13.12.12,0,0,1,.1-.13.11.11,0,0,0,.11-.1c0-.06.07-.1.22-.1S34.63,30.63,34.63,30.69Zm31.26,3.92a.1.1,0,0,0,.1.1.1.1,0,0,1,.11.09.13.13,0,0,0,.1.12c.06,0,.08.24.08.78v.74h-.39c-.23,0-.4,0-.42-.08s-.12-.08-.23-.08-.24,0-.27-.1a.26.26,0,0,0-.22-.11c-.08,0-.16,0-.16-.1a.1.1,0,0,0-.1-.08.11.11,0,0,1-.11-.1.11.11,0,0,0-.11-.1.1.1,0,0,1-.11-.09.1.1,0,0,0-.11-.1.11.11,0,0,1-.1-.1.11.11,0,0,0-.11-.1.12.12,0,0,1-.11-.12.36.36,0,0,0-.11-.23c-.22-.2-.12-.24.65-.24s.75,0,.75-.1.1-.09.44-.09S65.89,34.54,65.89,34.61Zm-3,9.7s.1.08.21.11.22.08.22.14a.08.08,0,0,0,.07.09s.09.07.12.16a.26.26,0,0,0,.14.19c.14,0,.14.63,0,.63a.1.1,0,0,0-.1.1.1.1,0,0,1-.1.09.14.14,0,0,0-.13.08c0,.05-.23.09-.54.11s-.53,0-.62-.08a.41.41,0,0,0-.22-.11c-.07,0-.12,0-.12-.09a.1.1,0,0,0-.11-.1.11.11,0,0,1-.1-.1.11.11,0,0,0-.11-.1.1.1,0,0,1-.11-.1.1.1,0,0,0-.11-.09s-.11,0-.11-.09.28-.31.47-.31.18,0,.18-.09.07-.1.22-.1.21,0,.21-.1.07-.1.22-.1.21,0,.21-.1a.1.1,0,0,1,.11-.09C62.82,44.26,62.87,44.28,62.87,44.31Z" transform="translate(0 0.13)"/><path class="cls-1" d="M50.57,30.63c-.07,0-.13.07-.13.1s-.14.06-.32.06a.75.75,0,0,0-.41.09.7.7,0,0,1-.3.13c-.11,0-.19.07-.19.11s0,.06-.11.06a.1.1,0,0,0-.11.09.44.44,0,0,1-.15.2c-.13.1-.15.17-.12.48a.75.75,0,0,0,.11.4.12.12,0,0,1,.09.11c0,.06.06.1.14.1s.15,0,.15.09.09.1.39.1.4,0,.4-.1.08-.09.36-.09.35,0,.33-.06.2-.14.55-.14c.17,0,.29,0,.31.1s.14.1.35.1.33,0,.35.09.14.1.3.1.25,0,.25.1.09.1.32.1.33,0,.33-.1a.11.11,0,0,1,.1-.1.1.1,0,0,0,.11-.1.1.1,0,0,1,.11-.09c.06,0,.11,0,.11-.08a.34.34,0,0,1,.11-.17c.12-.11.11-.47,0-.52a.14.14,0,0,1-.09-.12.1.1,0,0,0-.11-.1.1.1,0,0,1-.11-.09.1.1,0,0,0-.11-.1.11.11,0,0,1-.1-.1.11.11,0,0,0-.1-.1c-.06,0-.12,0-.13-.07a.69.69,0,0,0-.33-.1c-.19,0-.31-.08-.31-.13s-.09-.09-.31-.09a.71.71,0,0,1-.35-.06A4.3,4.3,0,0,0,50.57,30.63Z" transform="translate(0 0.13)"/><path class="cls-1" d="M14.73,36.73s-.09.08-.22.11-.21.08-.21.2a.22.22,0,0,1-.11.2c-.09,0-.11.22-.11,1.17s0,1.14.11,1.14a.11.11,0,0,1,.11.1.11.11,0,0,0,.11.1.1.1,0,0,1,.1.09c0,.07.08.1.22.1s.21,0,.21.11,0,.09.06,0a.78.78,0,0,1,.37-.12c.6-.09.62-.14.64-1.61,0-1.14,0-1.29-.09-1.29a.1.1,0,0,1-.11-.1s-.1-.11-.22-.13-.21-.07-.21-.11-.15-.06-.33-.06S14.73,36.7,14.73,36.73Z" transform="translate(0 0.13)"/><path class="cls-1" d="M22.85,36.77s0,.1-.07.1c-.2,0-.36.23-.36.5s0,.28-.07.28-.08.05-.08.11,0,.08.08.06.07,0,.07.19,0,.23-.07.23-.08.09-.08.2,0,.19.08.19.06,0,0,.1-.06.1,0,.13a1.09,1.09,0,0,1,.07.47c0,.32,0,.42.1.42s.11,0,.11.09.12.1.33.12c.43.06,1,0,1-.12a.09.09,0,0,1,.1-.09c.08,0,.11-.08.11-.27s0-.26.07-.26.08-.34.08-.88,0-.88-.08-.88-.07-.11-.07-.23,0-.23-.11-.23-.1,0-.1-.06-.05-.07-.11-.07a.11.11,0,0,1-.11-.1c0-.08-.09-.1-.43-.1S22.85,36.69,22.85,36.77Z" transform="translate(0 0.13)"/><path class="cls-1" d="M14.73,41.8c0,.07-.07.1-.22.1s-.21,0-.21.2,0,.19-.11.19-.11.1-.11.5,0,.49.11.49.11.06.11.19,0,.2.11.2.1.06.1.19,0,.2.11.2a.11.11,0,0,1,.11.1.11.11,0,0,0,.11.1.1.1,0,0,1,.1.09.11.11,0,0,0,.11.1.11.11,0,0,1,.11.1.11.11,0,0,0,.11.1.1.1,0,0,1,.11.1.1.1,0,0,0,.1.09c.06,0,.11,0,.11.06s.09.08.2.11a.53.53,0,0,1,.25.12,1.41,1.41,0,0,0,.51.09,1.18,1.18,0,0,1,.48.09s.06.06.14.06.15,0,.15-.06a1.11,1.11,0,0,1,.47-.09,1.43,1.43,0,0,0,.52-.09.48.48,0,0,1,.25-.12c.11,0,.19-.07.19-.1s.07-.07.15-.09.13-.06.1-.1.05-.07.21-.07.26,0,.26.06.08.08.17.11a.33.33,0,0,1,.22.13s.11.09.22.09a.26.26,0,0,1,.21.1c0,.07.15.1.44.1s.39,0,.39.06.1.07.22.07.22,0,.22-.06.17-.07.4-.09a1.08,1.08,0,0,0,.45-.1.31.31,0,0,1,.24-.09c.11,0,.2-.06.2-.09s.1-.1.21-.13.22-.08.22-.14a.1.1,0,0,1,.11-.09.11.11,0,0,0,.11-.1.1.1,0,0,1,.1-.09c.07,0,.11-.06.11-.17s0-.16.11-.16a.11.11,0,0,0,.11-.1.11.11,0,0,1,.1-.1c.08,0,.11-.06.11-.19s0-.2.11-.22.11-.17.11-.7,0-.65-.11-.65a.11.11,0,0,1-.11-.1c0-.06-.07-.1-.21-.1s-.22,0-.22-.1-.09-.09-.32-.09-.33,0-.33.09-.07.1-.21.1-.22,0-.22.2,0,.19-.1.19-.11.09-.11.4,0,.39-.11.39a.11.11,0,0,0-.11.1.11.11,0,0,1-.11.1.1.1,0,0,0-.1.09c0,.06-.07.1-.18.1a.26.26,0,0,0-.21.1c0,.06-.14.1-.33.1s-.29,0-.29-.1-.06-.1-.14-.1-.15,0-.15-.1a.1.1,0,0,0-.1-.09c-.06,0-.11,0-.11-.08a.29.29,0,0,0-.11-.16.38.38,0,0,1-.11-.23c0-.06,0-.12-.06-.12s-.09-.09-.12-.2-.09-.2-.15-.2a.09.09,0,0,1-.1-.09c0-.08-.11-.1-.54-.1s-.54,0-.54.1-.06.09-.17.09-.17,0-.21.28a.51.51,0,0,1-.11.3.12.12,0,0,0-.08.12.09.09,0,0,1-.1.09c-.06,0-.12.07-.15.16a.3.3,0,0,1-.21.21.27.27,0,0,0-.22.13c-.05.13-.62.12-.62,0s-.07-.1-.21-.1-.22,0-.22-.1a.1.1,0,0,0-.1-.09.11.11,0,0,1-.11-.1.19.19,0,0,0-.1-.15c-.06,0-.11-.21-.13-.47s-.07-.44-.12-.45a.11.11,0,0,1-.08-.12c0-.05-.08-.09-.22-.09s-.21,0-.21-.1-.09-.09-.33-.09S14.73,41.73,14.73,41.8Z" transform="translate(0 0.13)"/><path class="cls-1" d="M6.37,62.07a.26.26,0,0,1-.21.09c-.15,0-.18,0-.22.28a.51.51,0,0,1-.11.3c-.1,0-.11,6.22,0,6.22s.09.09.12.2.08.19.11.19.07.05.07.1.07.1.24.1a.41.41,0,0,1,.29.08c0,.06.05.06.09,0A.4.4,0,0,1,7,69.55c.17,0,.25,0,.25-.09a.13.13,0,0,1,.09-.12c.06,0,.09-.33.11-1.18l0-1.16h.93a2.5,2.5,0,0,0,.94-.07,1.15,1.15,0,0,1,.53-.1,1.19,1.19,0,0,0,.56-.13.31.31,0,0,1,.23-.09c.11,0,.18,0,.18-.1s0-.1.07-.1a.64.64,0,0,0,.25-.16.53.53,0,0,1,.25-.16.1.1,0,0,0,.08-.1.17.17,0,0,1,.1-.14.21.21,0,0,0,.11-.19.2.2,0,0,1,.11-.2c.07,0,.11-.13.11-.3s0-.27.1-.29.16-.82,0-.8-.1-.08-.12-.26a.65.65,0,0,0-.13-.38.34.34,0,0,1-.1-.23.12.12,0,0,0-.11-.12s-.1,0-.1-.07a1.12,1.12,0,0,0-.51-.45s-.09-.05-.11-.1a.2.2,0,0,0-.14-.1.36.36,0,0,1-.19-.08.92.92,0,0,0-.42-.14.6.6,0,0,1-.34-.1A7.93,7.93,0,0,0,8.08,62C6.66,62,6.4,62,6.37,62.07Zm3.4,1.34a.51.51,0,0,0,.24.09c.11,0,.19.09.19.14a.28.28,0,0,0,.1.17,1.12,1.12,0,0,1,.15.91c0,.27-.07.39-.15.39s-.1,0-.1.07a.4.4,0,0,1-.27.25.32.32,0,0,0-.16.1c-.07.08-.3.1-1.19.1H7.47V64.49c0-1.13,0-1.14.17-1.16A13.6,13.6,0,0,1,9.77,63.41Z" transform="translate(0 0.13)"/><path class="cls-1" d="M35.93,62s-.1.08-.21.1-.23.1-.25.21-.08.15-.12.15-.07,1.2-.07,3.34c0,2,0,3.33.06,3.33s.09.09.12.2l0,.19H36c.42,0,.53,0,.53-.1a.1.1,0,0,1,.11-.09c.07,0,.11-.07.11-.2s0-.2.07-.2a9.28,9.28,0,0,0,.09-1.6c0-1.45,0-1.61.15-1.67a.25.25,0,0,0,.12-.16c0-.06.07-.1.17-.1s.19,0,.2-.05.26-.1.55-.09c.09,0,.14,0,.12.08s0,.06.09.06a.73.73,0,0,1,.35.18l.21.18,0,1.68A12.41,12.41,0,0,0,39,69.16s.08.09.11.2l.05.19h.53c.43,0,.54,0,.54-.1a.08.08,0,0,1,.07-.09s.07,0,.07-.1a.11.11,0,0,1,.11-.1c.09,0,.11-.24.11-1.76a8.49,8.49,0,0,0-.08-1.78.72.72,0,0,1-.11-.35c0-.18-.09-.35-.15-.38a.17.17,0,0,1-.1-.12c0-.12-.48-.51-.63-.51s-.16,0-.17-.09a3.85,3.85,0,0,0-1.55,0,.41.41,0,0,1-.21.11c-.09,0-.17.08-.17.12s0,0-.1,0a.29.29,0,0,0-.18.12c-.15.23-.22-.07-.22-.95a3.8,3.8,0,0,0-.06-.89.78.78,0,0,1-.11-.3c0-.22-.07-.26-.22-.26s-.18,0-.18-.1-.08-.1-.22-.1S35.93,62,35.93,62Z" transform="translate(0 0.13)"/><path class="cls-1" d="M61.09,62.07a.4.4,0,0,1-.23.1c-.08,0-.15,0-.15.09a.15.15,0,0,1-.08.12,18.25,18.25,0,0,0-.12,3.4c0,3,0,3.38.1,3.38s.1.07.1.2v.19h.59c.33,0,.56,0,.53-.06s0-.09.08-.12.13-.18.15-.36.06-.29.1-.27a0,0,0,0,0,.06,0,.07.07,0,0,0-.07-.07,12.06,12.06,0,0,1-.07-2,9.71,9.71,0,0,1,.07-2s.07,0,.07-.06,0-.1-.07-.1a2.47,2.47,0,0,1-.07-.88c0-.47,0-1,0-1.17s-.07-.3-.26-.3-.2,0-.2-.1S61.22,61.94,61.09,62.07Z" transform="translate(0 0.13)"/><path class="cls-1" d="M64.09,62s-.08.07-.18.1-.18.08-.18.13a.1.1,0,0,1-.11.09c-.08,0-.1.09-.1.36s0,.36.1.36a.1.1,0,0,1,.11.09c0,.13.16.17.59.17s.7-.19.7-.66c0-.24,0-.32-.1-.32a.1.1,0,0,1-.11-.09c0-.05-.1-.12-.22-.14s-.2-.06-.13-.1,0-.06-.13-.06S64.09,62,64.09,62Z" transform="translate(0 0.13)"/><path class="cls-1" d="M56.93,62.34c-.18,0-.24.07-.28.23s-.07.18-.1.18a1.68,1.68,0,0,0-.09.67l0,.67-.2,0c-.11,0-.2,0-.2.08s-.09.07-.21.1-.22.07-.22.33,0,.29.11.29.11,0,.11.06.13.07.31.09l.3,0,0,2a15.19,15.19,0,0,0,.08,2s.09.09.11.2l.05.19h.54c.42,0,.53,0,.53-.1a.1.1,0,0,1,.11-.09c.07,0,.1-.07.1-.2s0-.2.08-.2A12.22,12.22,0,0,0,58.14,67l0-1.94.43,0c.44,0,.56-.09.64-.32s0-.48-.14-.48-.1,0-.1-.07-.19-.06-.41-.08l-.42,0,0-.6a1.63,1.63,0,0,0-.08-.6c-.05,0-.08-.07-.08-.15C58,62.45,57.52,62.27,56.93,62.34Z" transform="translate(0 0.13)"/><path class="cls-1" d="M14.54,64.11c-.13,0-.24,0-.24.08s-.1.07-.22.1-.21.06-.21.1-.1.07-.22.1-.21.08-.21.13a.1.1,0,0,1-.11.09c-.07,0-.11.07-.11.2s0,.2-.11.2-.11.07-.11.29,0,.29.11.29a.11.11,0,0,1,.11.1.11.11,0,0,0,.11.1c.06,0,.11,0,.11.07s.13.06.28.06.58-.15.58-.31,0-.08.11-.08.1-.06.1-.16.05-.17.11-.17a.1.1,0,0,0,.11-.1s.1-.11.25-.13a2.88,2.88,0,0,1,1.24.09.17.17,0,0,0,.13.08.09.09,0,0,1,.1.09.09.09,0,0,0,.08.1s.07.06.07.13,0,.13-.07.13-.08.08-.11.16-.1.16-.33.2-.28.06-.28.1a.82.82,0,0,1-.41.08,1,1,0,0,0-.44.1s-.19.08-.45.08-.43,0-.43.09-.11.11-.3.13a.65.65,0,0,0-.33.1.14.14,0,0,1-.13.08.09.09,0,0,0-.1.09.1.1,0,0,1-.11.1.12.12,0,0,0-.11.1.11.11,0,0,1-.1.1c-.07,0-.11.06-.11.19s0,.2-.09.21a.79.79,0,0,0-.11.4c0,.32,0,.37.08.37s.12.06.12.23a.51.51,0,0,0,.11.32.39.39,0,0,1,.1.17s.06.07.11.07a.1.1,0,0,1,.11.1c0,.06.07.09.22.09s.21,0,.21.1.09.1.43.1.43,0,.43.07.08.06.18.06.18,0,.18-.06.23-.07.54-.07.54,0,.54-.1.07-.1.14-.1.15,0,.15-.09.07-.1.21-.1.22,0,.22.1a.09.09,0,0,0,.07.09s.07.05.07.1.11.1.53.1c.57,0,.62,0,.62-.44C18,69,18,69,18,69a20,20,0,0,0,0-3.29,1,1,0,0,1-.1-.43c0-.2-.08-.37-.12-.38a.13.13,0,0,1-.08-.12.09.09,0,0,0-.07-.09.47.47,0,0,1-.24-.16,1,1,0,0,0-.38-.21.58.58,0,0,1-.26-.11A12,12,0,0,0,14.54,64.11ZM16.48,67c.09,0,.12.14.12.49s0,.45-.07.45-.08.09-.08.2,0,.19-.13.19a.46.46,0,0,0-.25.1.77.77,0,0,1-.44.1c-.24,0-.33,0-.33.1s0,.1-.07.1-.07,0-.07-.1-.09-.1-.33-.1-.48-.07-.56-.36a.59.59,0,0,0-.14-.25c-.06,0-.05-.06,0-.12a.24.24,0,0,0,.12-.15.11.11,0,0,1,.11-.1.11.11,0,0,0,.1-.1c0-.06.08-.1.21-.1s.22,0,.24-.07a1,1,0,0,1,.49-.11c.29,0,.49-.06.52-.12S16.29,67,16.48,67Z" transform="translate(0 0.13)"/><path class="cls-1" d="M19.43,64.15a.17.17,0,0,1-.15.11.12.12,0,0,0-.1.13c0,.07,0,.13-.07.13s-.07.08-.07.19,0,.2.06.2.08.15.1.33a.73.73,0,0,0,.11.38.64.64,0,0,1,.11.3c0,.14.07.27.11.29a.64.64,0,0,1,.11.3c0,.15.08.27.12.28a.38.38,0,0,1,.07.24.42.42,0,0,0,.1.31,1,1,0,0,1,.13.44.78.78,0,0,0,.11.39.64.64,0,0,1,.11.3c0,.15.08.27.13.28a.31.31,0,0,1,.07.22c0,.12,0,.19.1.19s.12.08.15.19.07.2.36.2.33,0,.35.08,0,.06.09,0a.33.33,0,0,1,.25-.08c.13,0,.21,0,.21-.1a.11.11,0,0,1,.1-.1.1.1,0,0,0,.11-.09.1.1,0,0,1,.11-.1c.08,0,.11-.08.11-.29a.57.57,0,0,1,.11-.39.63.63,0,0,0,.1-.39c0-.23,0-.3.11-.3s.11-.08.11-.3,0-.29.11-.29.1-.09.1-.36,0-.36.11-.36.11-.07.11-.2,0-.19.11-.19.11.07.11.29,0,.29.1.29.11.09.11.36,0,.36.11.36.11.08.11.29,0,.3.1.33.11.14.11.4,0,.36.11.36.11.06.11.19,0,.2.11.2.1.06.1.19v.2h.65c.52,0,.65,0,.65-.1a.11.11,0,0,1,.1-.1c.06,0,.11,0,.11-.09a.13.13,0,0,1,.07-.11c.05,0,.1-.14.13-.29a.6.6,0,0,1,.14-.34.5.5,0,0,0,.09-.31c0-.12,0-.23.08-.24s.1-.17.12-.35a.82.82,0,0,1,.1-.36.6.6,0,0,0,.11-.33A.6.6,0,0,1,27,66.6s.08-.15.11-.29a.54.54,0,0,1,.11-.3.68.68,0,0,0,.1-.29.56.56,0,0,1,.13-.3,1.42,1.42,0,0,0,.1-.53c0-.44,0-.5-.13-.63a.83.83,0,0,0-.88-.11.38.38,0,0,1-.19.11c-.05,0-.08.07-.08.15a.39.39,0,0,1-.11.26.57.57,0,0,0-.11.36.57.57,0,0,1-.11.36.66.66,0,0,0-.1.37c0,.18,0,.28-.11.3s-.11.13-.11.32a.55.55,0,0,1-.1.37,1,1,0,0,0-.13.43c0,.35-.12.51-.18.36a.17.17,0,0,0-.14-.08c-.07,0-.1-.09-.1-.33s0-.32-.1-.32-.11-.08-.11-.29a.55.55,0,0,0-.11-.39.64.64,0,0,1-.11-.4c0-.22,0-.3-.1-.3s-.11-.08-.11-.36,0-.36-.11-.36-.11-.06-.11-.19,0-.2-.11-.2a.1.1,0,0,1-.1-.1c0-.18-1-.21-1.07,0a.15.15,0,0,1-.13.07.12.12,0,0,0-.1.13.12.12,0,0,1-.1.13c-.08,0-.11.08-.11.33s0,.31-.07.3-.15.11-.15.41,0,.27-.11.29-.1.14-.1.4,0,.36-.11.36-.11.08-.11.33,0,.32-.06.29-.2.39-.17.52,0,0-.09-.06a.74.74,0,0,1-.11-.41c0-.21,0-.28-.11-.28s-.11-.08-.11-.29,0-.3-.07-.31-.11-.18-.13-.38a1,1,0,0,0-.13-.44.67.67,0,0,1-.1-.38c0-.19,0-.29-.1-.32s-.11-.12-.11-.26c0-.32-.23-.51-.66-.55S19.46,64.07,19.43,64.15Z" transform="translate(0 0.13)"/><path class="cls-1" d="M30.7,64.11c-.09,0-.16,0-.16.08s-.13.07-.28.09a.57.57,0,0,0-.33.14s-.07.1-.11.1a2.57,2.57,0,0,0-.79.71.07.07,0,0,1-.07.07s-.09.11-.12.25a.65.65,0,0,1-.13.29,6,6,0,0,0,0,2.12.29.29,0,0,1,.08.23.25.25,0,0,0,.11.23.21.21,0,0,1,.11.19c0,.1,0,.16.11.16a.1.1,0,0,1,.1.1.1.1,0,0,0,.11.09.11.11,0,0,1,.11.1.11.11,0,0,0,.11.1.11.11,0,0,1,.1.1c0,.06.08.1.22.1s.22,0,.22.09.07.1.2.1.23,0,.26.11.17.1.95.08.92,0,.94-.11a.3.3,0,0,1,.24-.08c.14,0,.21,0,.21-.1s.07-.09.21-.09.22,0,.22-.1a.11.11,0,0,1,.11-.1.11.11,0,0,0,.1-.1.11.11,0,0,1,.11-.1c.07,0,.11-.06.11-.19s0-.2.11-.2.11-.08.11-.39,0-.39-.11-.39a.11.11,0,0,1-.11-.1.11.11,0,0,0-.11-.1.1.1,0,0,1-.11-.1c0-.07-.08-.09-.32-.09s-.32,0-.32.09a.1.1,0,0,1-.11.1c-.07,0-.11.07-.11.19a.24.24,0,0,1-.11.23.23.23,0,0,0-.1.2c0,.13,0,.17-.18.17a.29.29,0,0,0-.23.09c0,.08-.18.1-.68.1s-.64,0-.64-.1a.1.1,0,0,0-.11-.09.11.11,0,0,1-.1-.1.11.11,0,0,0-.11-.1c-.07,0-.11-.07-.11-.19s0-.2-.09-.22-.09-.25-.09-.86,0-.85.09-.87.09-.12.09-.22,0-.19.11-.19a.11.11,0,0,0,.11-.1.1.1,0,0,1,.1-.1.18.18,0,0,0,.14-.09c0-.08.17-.1.63-.1s.62,0,.73.13a.37.37,0,0,0,.22.13c.06,0,.12.07.15.16s.07.17.11.17.07.08.07.19,0,.2.11.2a.1.1,0,0,1,.11.1c0,.07.08.1.32.1s.32,0,.32-.1a.1.1,0,0,1,.11-.1.11.11,0,0,0,.11-.1.11.11,0,0,1,.11-.1c.08,0,.11-.08.11-.39s0-.39-.11-.39-.11-.06-.11-.16,0-.17-.11-.17a.1.1,0,0,1-.11-.1.1.1,0,0,0-.1-.09.1.1,0,0,1-.11-.1c0-.05-.09-.11-.22-.13s-.21-.07-.21-.1-.09-.07-.2-.1a.53.53,0,0,1-.25-.12A7.87,7.87,0,0,0,30.7,64.11Z" transform="translate(0 0.13)"/><path class="cls-1" d="M44.07,64.11c-.13,0-.24,0-.24.08s-.14.07-.3.09a.61.61,0,0,0-.33.1.16.16,0,0,1-.13.07.1.1,0,0,0-.1.1.11.11,0,0,1-.11.1.11.11,0,0,0-.11.1.11.11,0,0,1-.11.1.1.1,0,0,0-.1.09.1.1,0,0,1-.11.1.11.11,0,0,0-.11.1.11.11,0,0,1-.11.1c-.07,0-.11.06-.11.19s0,.2-.1.2-.11.08-.11.29,0,.3-.11.3-.11.12-.11.69,0,.68.11.68.11.08.11.3,0,.29.11.29.1.07.1.2,0,.19.11.19a.11.11,0,0,1,.11.1.11.11,0,0,0,.11.1.1.1,0,0,1,.11.1.1.1,0,0,0,.1.09.11.11,0,0,1,.11.1.11.11,0,0,0,.11.1.11.11,0,0,1,.11.1c0,.06.07.1.21.1s.22,0,.22.09.07.1.21.1a.29.29,0,0,1,.25.1c0,.08.19.1.86.1.83,0,1.08,0,1-.14s.07-.06.21-.06.26,0,.26-.1.07-.09.22-.09.21,0,.21-.1a.11.11,0,0,1,.11-.1.11.11,0,0,0,.11-.1A.11.11,0,0,1,47,69a.1.1,0,0,0,.11-.09.1.1,0,0,1,.11-.1.11.11,0,0,0,.11-.1s0-.1.06-.1.09-.08.12-.17a.41.41,0,0,1,.12-.23.55.55,0,0,0,.11-.31c0-.14.07-.27.1-.27a2.1,2.1,0,0,0,.06-.68,2.14,2.14,0,0,0-.06-.69s-.08-.13-.1-.27a.55.55,0,0,0-.11-.31.4.4,0,0,1-.12-.21.78.78,0,0,0-.23-.3.53.53,0,0,1-.17-.22s0-.06-.08-.06a.87.87,0,0,1-.28-.2.56.56,0,0,0-.26-.2s-.1,0-.1-.06-.12-.08-.26-.11a.73.73,0,0,1-.32-.1A7,7,0,0,0,44.07,64.11Zm1.27,1.06s.08.08.18.09.46.24.46.35a.1.1,0,0,0,.11.09.12.12,0,0,1,.11.13.58.58,0,0,0,.11.29c.1.13.11.3.09.88a1.87,1.87,0,0,1-.1.77.53.53,0,0,0-.13.23c0,.1-.08.18-.11.18a.09.09,0,0,0-.08.1.11.11,0,0,1-.1.1.1.1,0,0,0-.11.09c0,.08-.09.1-.32.1s-.33,0-.33.1-.08.1-.36.1-.36,0-.36-.1-.08-.1-.28-.1-.29,0-.29-.1a.1.1,0,0,0-.11-.09.11.11,0,0,1-.11-.1.11.11,0,0,0-.1-.1c-.08,0-.11-.07-.11-.2s0-.19-.11-.19-.11-.15-.11-.88,0-.89.11-.89.11-.06.11-.16,0-.16.11-.16a.12.12,0,0,0,.1-.13c0-.08,0-.14.08-.14a.34.34,0,0,0,.18-.09.42.42,0,0,1,.25-.1c.08,0,.14,0,.14-.06s.12-.07.27-.09C44.9,65.07,45.34,65.11,45.34,65.17Z" transform="translate(0 0.13)"/><path class="cls-1" d="M49.51,64.11a.5.5,0,0,0-.36.39c0,.08,0,.16-.08.18A15,15,0,0,0,49,66.84,13.51,13.51,0,0,0,49.07,69s.08.09.08.2,0,.19.1.19a.11.11,0,0,1,.11.1c0,.08.11.1.54.1h.54v-.2c0-.13,0-.19.11-.19s.1-.23.1-1.66a5.41,5.41,0,0,1,.1-1.75.77.77,0,0,0,.14-.21c0-.05.08-.11.12-.11a.32.32,0,0,0,.19-.1c.19-.17,1.18-.11,1.18.08a.09.09,0,0,0,.1.09c.06,0,.12.07.14.16s.08.17.12.17a8.6,8.6,0,0,1,.07,1.66c0,1.44,0,1.67.11,1.67s.11.06.11.19,0,.2.25.2.24,0,.21.08,0,.06,0,0a.57.57,0,0,1,.33-.09c.16,0,.23,0,.23-.1a.11.11,0,0,1,.11-.1c.09,0,.11-.28.11-2.15s0-2.16-.11-2.16-.11-.06-.11-.16,0-.17-.1-.17-.11,0-.11-.08-.22-.28-.44-.34a.55.55,0,0,1-.22-.13,4.85,4.85,0,0,0-1.7,0,.48.48,0,0,1-.25.12c-.11,0-.19.07-.19.1s-.05.06-.11.06a.11.11,0,0,0-.11.1s0,.1-.07.1a.07.07,0,0,1-.07-.06s-.07-.07-.15-.09a.17.17,0,0,1-.14-.14.09.09,0,0,0-.08-.1.41.41,0,0,1-.18-.1A.84.84,0,0,0,49.51,64.11Z" transform="translate(0 0.13)"/><path class="cls-1" d="M64.16,64.19s-.09.07-.21.07-.22,0-.22.13a.12.12,0,0,1-.11.13c-.09,0-.1.31-.1,2.42s0,2.41.1,2.41a.11.11,0,0,1,.11.1c0,.07.07.1.22.1s.21,0,.21.07,0,.06.12.06.08,0,.06-.06.06-.07.21-.07.26,0,.26-.1a.11.11,0,0,1,.11-.1c.09,0,.1-.3.1-2.39,0-2.39,0-2.39-.15-2.55a.65.65,0,0,0-.33-.15c-.09,0-.16,0-.16-.07s0-.06-.11-.06S64.16,64.15,64.16,64.19Z" transform="translate(0 0.13)"/></svg>