<?xml version="1.0" encoding="utf-8"?>
<!-- Generator: Adobe Illustrator 25.0.0, SVG Export Plug-In . SVG Version: 6.00 Build 0)  -->
<svg version="1.1" id="Capa_1" xmlns="http://www.w3.org/2000/svg" xmlns:xlink="http://www.w3.org/1999/xlink" x="0px" y="0px"
	 viewBox="0 0 700 749" style="enable-background:new 0 0 700 749;" xml:space="preserve">
<style type="text/css">
	.st0{fill:#FFFFFF;}
</style>
<g transform="translate(0.000000,749.000000) scale(0.100000,-0.100000)">
	<path class="st0" d="M3548,6875c-20-14-40-25-43-25s-18-8-33-19c-15-10-54-36-87-56c-33-21-82-52-110-70c-27-18-149-94-270-170
		s-249-157-285-180c-126-82-506-321-554-350c-61-38-75-47-106-66c-14-9-187-119-385-244c-516-327-494-312-500-337c-3-13-5-171-3-351
		l3-328l25-19c44-34,101-18,128,35c6,12,10,134,10,304c1,220,4,287,14,297c14,14,771,494,1153,732c50,31,269,170,488,309
		s400,253,403,253c2,0,26,15,52,33c47,32,170,107,177,107c4,0,599-374,637-401c15-10,30-19,33-19s42-24,88-53c45-30,163-105,262-167
		c201-127,382-241,435-275c19-12,99-62,178-111s198-124,265-167c67-42,184-116,260-163l137-87v-597c-1-385,3-606,9-623
		c20-53,113-57,138-6c15,29,19,1263,4,1302c-5,14-39,43-78,67c-37,24-90,57-118,75c-142,91-607,385-610,385c-2,0-126,78-277,173
		c-150,95-329,209-398,252s-147,93-175,110c-27,18-99,63-160,100c-60,38-219,137-352,222C3634,6917,3619,6923,3548,6875z"/>
	<path class="st0" d="M3532,5663c-29-6-72-63-72-96c0-29-20-36-39-14c-20,25-84,38-122,26c-114-39-131-151-38-254
		c78-84,299-216,326-194c7,6,13,15,13,20s15,42,34,82c101,214,112,334,35,404C3645,5659,3575,5672,3532,5663z"/>
	<path class="st0" d="M4365,4898c-87-21-112-27-165-43c-30-9-64-20-75-25s-54-24-97-43c-144-65-324-196-462-335l-79-80l-36,22
		c-20,12-63,35-96,50c-33,16-68,32-77,37c-10,5-34,9-55,9c-41,0-65-22-323-298c-107-115-138-143-154-138c-12,2-75,24-141,47l-120,43
		h-171c-106,0-185-4-210-12c-77-23-160-51-214-71l-55-20l-206,205c-214,213-227,222-280,194c-43-24-99-182-129-370
		c-25-155-33-237-39-435l-6-210l-55,1c-30,1-125,5-211,9l-155,8l-22-28c-28-36-28-66,2-98c26-29,46-33,191-43c55-3,134-9,175-13
		l75-6l3-123l3-122l-33-14c-18-8-69-22-113-31s-98-21-120-26c-22-6-58-15-80-21c-77-19-103-35-110-67c-4-19-1-40,9-59
		c24-47,56-52,153-27c32,9,76,20,98,25s69,16,105,24s71,15,78,16c9,0,12-115,12-544c0-521,1-545,19-567l19-24h2411
		c2300,0,2411,1,2428,18c16,16,18,46,21,330c2,194-1,323-7,340c-6,14-23,33-40,41c-26,14-33,14-64,1c-23-9-37-23-41-41
		c-4-14-8-139-9-278l-2-251l-2288-3l-2287-2l2,512l3,512l80,18c44,10,94,23,111,28c17,6,37,10,45,10c24,0,59,43,59,72
		c0,41-10,57-47,74c-28,14-41,15-71,6c-42-13-165-42-175-42c-4,0-7,46-7,102v101l106-6c108-7,135-2,161,32c14,18,16,50,7,76
		c-12,30-64,46-167,53l-102,7v190c0,260,16,410,62,603c3,12,8,22,12,22s85-79,181-175c103-103,182-176,194-177c48-3,54-1,166,51
		c37,18,212,60,280,68c132,16,289-16,454-91c31-14,71-26,89-26c34,0,49,14,345,328c60,63,114,112,125,112c20,0,67-22,109-52l27-19
		l-43-67c-142-220-234-456-286-731c-26-135-28-417-4-542c33-178,60-251,136-371c78-123,155-187,317-262c14-6,75-11,145-10
		c109,0,126,3,176,27c77,36,146,92,197,157c23,30,42,59,43,63c0,5,10,22,21,39c36,50,85,178,102,268c34,180,41,272,28,382
		c-16,138-43,268-71,343c-4,11-20,54-36,95c-74,199-226,414-401,571c-46,40-83,76-83,80c0,3,45,49,99,102c165,158,400,296,566,331
		c44,10,94,22,111,27c73,22,292,3,381-32c15-6,39-16,53-22c185-74,371-272,476-505c19-42,40-88,47-102c24-54,98-161,134-197
		c45-44,116-83,187-104c35-10,52-21,59-39c18-41,77-133,106-163c43-47,112-90,178-112l63-20l-26-54c-69-150-192-285-335-368
		c-147-85-419-106-598-46c-40,13-102,42-137,65c-75,47-171,148-205,215c-37,74-57,93-99,93s-80-33-80-68c0-27,35-105,69-152
		c176-245,415-359,733-351c83,3,139-21,223-94c33-28,80-60,105-70c58-23,162-23,215-1c148,63,179,240,64,362l-29,30l71,88
		c134,168,169,239,228,462c6,23,11,73,11,111c0,103-27,177-85,233c-41,39-29,38-340,30c-148-4-178,3-248,52c-26,19-99,124-124,178
		c-68,148-94,199-151,285c-163,251-349,379-655,453C4641,4912,4423,4912,4365,4898z M3602,4086c196-168,353-424,423-691
		c7-27,21-106,30-174c18-133,13-223-22-391c-33-160-146-338-249-390c-40-21-62-25-134-25c-77,0-93,3-144,30c-67,35-170,140-203,206
		c-48,97-62,138-85,244c-17,78-18,471-1,535c6,25,17,68,23,95c23,93,82,259,126,353c52,111,144,262,161,262
		C3533,4140,3567,4116,3602,4086z M6106,3772c31-21,49-142,23-157c-6-4-31-1-57,6c-51,14-158,107-150,131c3,8,28,15,64,19
		C6079,3780,6094,3780,6106,3772z M5889,2878c47-48,51-76,15-105c-35-28-69-29-111-3c-42,25-76,60-68,68c7,8,117,69,126,71
		C5855,2909,5872,2895,5889,2878z"/>
	<path class="st0" d="M4825,4128c-90-30-125-60-125-106c0-67,53-90,137-61c51,17,63,18,103,8c25-7,56-19,70-26c42-22,76-16,104,18
		c14,17,26,38,26,48C5140,4087,4934,4165,4825,4128z"/>
	<path class="st0" d="M1907,3583c-28-7-37-45-37-149c0-87,2-97,25-119c29-30,74-32,106-6c23,18,24,26,24,131s-1,113-24,131
		C1979,3589,1946,3593,1907,3583z"/>
	<path class="st0" d="M2556,3559c-23-27-26-39-26-110c0-92,15-131,60-154c27-14,33-14,60,0c42,22,52,55,48,163c-3,84-5,96-27,113
		C2635,3601,2587,3596,2556,3559z"/>
	<path class="st0" d="M1896,3115c-27-25-33-59-20-124c9-41,95-137,143-158c56-24,157-21,206,7c22,12,46,27,53,32c8,7,16,7,25,0
		c128-104,327-52,392,104c34,82,2,164-65,164c-36,0-80-44-80-80c0-42-52-90-98-90c-25,0-71,46-88,87c-15,36-40,53-77,53
		c-29,0-77-35-77-57c0-26-65-83-95-83c-38,0-95,59-95,98c0,21-8,37-26,51C1959,3147,1929,3145,1896,3115z"/>
	<path class="st0" d="M1216,1295l-26-24V967c0-277,2-305,18-319c26-24,54-29,82-15c24,12,25,17,30,122l5,110l111,6
		c137,8,186,32,239,114c26,41,27,155,2,207c-44,92-133,128-315,128C1249,1320,1241,1319,1216,1295z M1504,1186c43-18,66-51,66-97
		c0-30-7-43-35-68c-34-30-39-31-125-31h-90v98c0,54,3,102,7,105C1339,1206,1470,1200,1504,1186z"/>
	<path class="st0" d="M3645,1308c-44-24-45-28-45-338c0-332,1-340,65-340c56,0,65,23,65,177c0,72,4,143,10,157c9,26,56,56,85,56
		c9,0,30-13,46-29l29-29V818c0-166,8-188,65-188c61,0,67,22,63,227c-3,168-4,180-26,211c-48,66-136,82-215,37c-25-13-47-21-51-18
		c-3,4-6,43-6,87c0,101-6,121-36,135C3665,1322,3670,1322,3645,1308z"/>
	<path class="st0" d="M5710,1306c-14-6-28-15-32-21c-4-5-8-145-8-310c0-338,1-345,65-345c63,0,65,9,65,326c0,155-3,295-6,311
		C5787,1303,5747,1322,5710,1306z"/>
	<path class="st0" d="M5938,1299c-51-38-26-109,39-109c29,0,63,33,63,60c0,22-45,70-64,70C5970,1320,5953,1310,5938,1299z"/>
	<path class="st0" d="M5354,1263c-20-22-24-34-19-60c9-51-2-78-38-89c-52-15-45-74,9-74h24l2-152c2-198,2-199,12-226
		c14-42,87-49,113-10c4,7,10,96,13,198l5,185l39,5c28,4,41,11,46,26c12,30-3,46-46,53l-39,6l-5,64c-4,50-10,67-29,82
		C5409,1297,5384,1295,5354,1263z"/>
	<path class="st0" d="M1865,1109c-55-27-75-49-81-90c-4-26-1-40,11-52c29-30,61-21,101,28c35,43,39,45,90,45c46,0,56-4,69-24
		c30-45-7-73-122-91c-111-17-171-60-190-133c-7-28,12-88,36-115c45-52,181-67,248-27l36,21l14-21c9-13,25-20,46-20c62,0,62-1,62,219
		v201l-27,26c-37,38-91,54-178,53C1926,1129,1894,1124,1865,1109z M2068,809c-6-58-30-85-83-91c-55-6-85,3-102,29c-15,22-15,28-2,51
		c11,20,29,30,79,43c36,9,76,17,89,18C2071,860,2072,858,2068,809z"/>
	<path class="st0" d="M2286,1108c-9-12-16-28-16-34c0-12,27-106,40-139c4-11,16-47,25-80c21-74,55-175,66-196c12-24,65-40,93-30
		c25,10,50,44,59,81c22,93,33,129,40,136c4,4,7,17,7,28c1,12,7,32,14,46c14,24,14,24,26-20c7-25,16-54,20-65c12-32,28-88,34-120
		c8-35,44-83,66-86c66-7,88,15,119,118c51,169,73,239,82,261c13,32,11,96-3,110c-16,16-60,15-79,0c-14-12-27-50-60-173
		c-6-22-15-50-20-63s-9-32-9-43c0-46-25-8-47,72c-60,212-63,219-117,219c-40,0-68-29-85-90c-8-25-17-56-21-70c-5-14-16-55-26-92
		c-16-62-34-90-34-52c0,8-7,39-16,67c-8,29-20,70-26,92c-23,85-40,130-51,137C2343,1137,2301,1130,2286,1108z"/>
	<path class="st0" d="M3201,1116c-92-33-151-129-151-245c0-69,13-113,51-165c49-67,80-81,189-81c86,0,99,3,135,26
		c52,34,84,97,67,134c-13,29-53,51-77,42c-8-4-20-18-25-32c-17-45-58-75-103-75c-33,0-46,6-73,36c-32,34-34,39-34,110
		c0,113,29,153,111,154c48,0,78-21,103-72c26-53,114-14,102,45C3476,1094,3320,1159,3201,1116z"/>
	<path class="st0" d="M4295,1117c-107-42-175-137-175-244c0-100,77-214,165-243c54-18,181-8,225,17c45,26,96,93,111,146
		c14,53,6,162-15,204c-24,45-97,107-144,121C4413,1133,4334,1132,4295,1117z M4421,1026c60-25,89-74,89-150c0-64-14-102-50-133
		c-54-49-145-36-187,26c-19,28-23,48-23,107c0,64,3,76,27,105c25,29,73,58,99,59C4382,1040,4403,1034,4421,1026z"/>
	<path class="st0" d="M4741,1101c-20-27-21-43-21-224s1-196,21-221c26-33,70-35,99-4c18,20,20,35,20,169c0,145,0,147,26,173
		c35,34,91,36,122,4c19-21,21-36,23-163c2-139,9-183,32-197c20-13,74-9,86,6c8,10,12,73,13,200c0,186,0,186-26,220
		c-52,69-140,85-226,42l-48-24l-23,24C4807,1140,4767,1138,4741,1101z"/>
	<path class="st0" d="M5940,1107l-25-13l-3-215c-3-239,0-250,57-251c24-1,40,6,53,22c16,20,18,43,18,216c0,203-6,238-44,248
		C5968,1122,5969,1122,5940,1107z"/>
</g>
</svg>
