<?xml version="1.0" encoding="utf-8"?>
<!-- Generator: Adobe Illustrator 25.0.0, SVG Export Plug-In . SVG Version: 6.00 Build 0)  -->
<svg version="1.1" id="Capa_1" xmlns="http://www.w3.org/2000/svg" xmlns:xlink="http://www.w3.org/1999/xlink" x="0px" y="0px"
	 viewBox="0 0 27.1 24.6" style="enable-background:new 0 0 27.1 24.6;" xml:space="preserve">
<style type="text/css">
	.st0{fill:none;stroke:#FFFFFF;stroke-width:2;stroke-linecap:round;stroke-linejoin:round;}
</style>
<path class="st0" d="M2,20.7c0,0,5-1,6-4c0,0-8-3-6-14c0,0,4,5,10,6v-2c0-1.1,0.4-2.3,1.1-3.2c0.7-0.9,1.7-1.5,2.9-1.7
	c1.1-0.2,2.3-0.1,3.3,0.5c1,0.5,1.8,1.4,2.3,2.4l4.4,0l-4,4c0,7-5,14-14,14C4,22.7,2,20.7,2,20.7z"/>
</svg>
